<svg width="39" height="41" viewBox="0 0 39 41" fill="none" xmlns="http://www.w3.org/2000/svg">
<path d="M33.4425 9.25891C33.1022 8.55923 32.6136 7.97744 32.0252 7.57136C31.4368 7.16528 30.7691 6.94906 30.0885 6.94419H25.35V2.31473C25.35 1.70082 25.1446 1.11206 24.7789 0.677969C24.4132 0.243873 23.9172 0 23.4 0H3.9C2.86566 0 1.87368 0.487745 1.14228 1.35594C0.410891 2.22413 0 3.40165 0 4.62946V27.7767C0.000701497 28.5886 0.181238 29.3859 0.5235 30.0888C0.865761 30.7916 1.35771 31.3753 1.95 31.7812C1.88018 33.9299 2.53228 36.0235 3.76285 37.6014C4.99342 39.1793 6.70165 40.1124 8.51175 40.1953C10.3219 40.2781 12.0856 39.5041 13.4149 38.0433C14.7442 36.5826 15.5302 34.5549 15.6 32.4062H21.645C21.8606 34.3429 22.6618 36.1207 23.8995 37.4084C25.1371 38.6961 26.7267 39.406 28.3725 39.406C30.0183 39.406 31.6079 38.6961 32.8455 37.4084C34.0832 36.1207 34.8844 34.3429 35.1 32.4062C36.1343 32.4062 37.1263 31.9185 37.8577 31.0503C38.5891 30.1821 39 29.0045 39 27.7767V20.8326C38.9969 20.4103 38.903 19.9959 38.727 19.6289L33.4425 9.25891ZM25.35 11.5736H30.0885L33.5985 18.5178H25.35V11.5736ZM8.775 34.7209C8.19649 34.7209 7.63097 34.5173 7.14996 34.1358C6.66894 33.7543 6.29404 33.212 6.07265 32.5775C5.85127 31.9431 5.79334 31.245 5.9062 30.5715C6.01906 29.8979 6.29764 29.2793 6.70671 28.7937C7.11578 28.3081 7.63697 27.9774 8.20436 27.8435C8.77176 27.7095 9.35987 27.7782 9.89435 28.041C10.4288 28.3038 10.8856 28.7489 11.207 29.3198C11.5285 29.8908 11.7 30.5621 11.7 31.2488C11.7 32.1697 11.3918 33.0528 10.8433 33.704C10.2947 34.3551 9.55076 34.7209 8.775 34.7209ZM28.275 34.7209C27.6965 34.7209 27.131 34.5173 26.65 34.1358C26.1689 33.7543 25.794 33.212 25.5727 32.5775C25.3513 31.9431 25.2933 31.245 25.4062 30.5715C25.5191 29.8979 25.7976 29.2793 26.2067 28.7937C26.6158 28.3081 27.137 27.9774 27.7044 27.8435C28.2718 27.7095 28.8599 27.7782 29.3943 28.041C29.9288 28.3038 30.3856 28.7489 30.707 29.3198C31.0285 29.8908 31.2 30.5621 31.2 31.2488C31.2 32.1697 30.8918 33.0528 30.3433 33.704C29.7947 34.3551 29.0508 34.7209 28.275 34.7209Z" fill="white"/>
</svg>
