<svg width="42" height="42" viewBox="0 0 42 42" fill="none" xmlns="http://www.w3.org/2000/svg">
<path d="M21 38.5C27.7533 38.5 33.25 33.0033 33.25 26.25C33.25 19.4967 27.7533 14 21 14C14.245 14 8.75 19.4967 8.75 26.25C8.75 33.0033 14.245 38.5 21 38.5ZM21 17.5C25.8247 17.5 29.75 21.4253 29.75 26.25C29.75 31.0747 25.8247 35 21 35C16.1753 35 12.25 31.0747 12.25 26.25C12.25 21.4253 16.1753 17.5 21 17.5ZM19.25 3.5H12.25V13.1565C14.3442 11.7551 16.7454 10.8793 19.25 10.6033V3.5ZM29.75 3.5H22.75V10.6033C25.2546 10.8793 27.6558 11.7551 29.75 13.1565V3.5Z" fill="white"/>
<path d="M17.5334 27.6692L16.7144 32.4398L21.0002 30.1875L25.2859 32.4398L24.4669 27.6692L27.9354 24.2882L23.1439 23.5917L21.0002 19.25L18.8564 23.5917L14.0649 24.2882L17.5334 27.6692Z" fill="white"/>
</svg>
