<svg width="42" height="42" viewBox="0 0 42 42" fill="none" xmlns="http://www.w3.org/2000/svg">
<path d="M28 21H31.5V28H28V21Z" fill="white"/>
<path d="M35 12.25V8.75C35 6.81975 33.4303 5.25 31.5 5.25H8.75C5.8555 5.25 3.5 7.6055 3.5 10.5V31.5C3.5 35.3517 6.6395 36.75 8.75 36.75H35C36.9302 36.75 38.5 35.1803 38.5 33.25V15.75C38.5 13.8197 36.9302 12.25 35 12.25ZM8.75 8.75H31.5V12.25H8.75C8.29941 12.2298 7.87396 12.0367 7.56223 11.7107C7.25051 11.3847 7.07653 10.951 7.07653 10.5C7.07653 10.049 7.25051 9.6153 7.56223 9.28932C7.87396 8.96334 8.29941 8.77016 8.75 8.75ZM35 33.25H8.771C7.9625 33.229 7 32.9088 7 31.5V15.4262C7.5495 15.624 8.13225 15.75 8.75 15.75H35V33.25Z" fill="white"/>
</svg>
