<svg width="16" height="16" viewBox="0 0 16 16" fill="none" xmlns="http://www.w3.org/2000/svg">
<g clip-path="url(#clip0_7509_917)">
<path fill-rule="evenodd" clip-rule="evenodd" d="M9.26374 2.01997C9.49968 1.78401 9.81552 1.64509 10.1489 1.63064C10.4823 1.6162 10.8089 1.72729 11.0644 1.94197L11.1491 2.01997L13.9777 4.84864C14.2135 5.08454 14.3523 5.40025 14.3668 5.73347C14.3812 6.06669 14.2702 6.39322 14.0557 6.64864L13.9777 6.73397L7.10174 13.61C6.88039 13.8313 6.58822 13.9677 6.2764 13.9953L6.15907 14H2.6704C2.50452 14 2.34448 13.9387 2.22096 13.828C2.09744 13.7173 2.01914 13.5649 2.00107 13.4L1.99707 13.3266V9.83797C1.99715 9.52494 2.10736 9.22191 2.3084 8.98197L2.3884 8.8953L9.26374 2.01997ZM8.11307 5.05597L3.3304 9.83864V12.6666H6.15974L10.9424 7.88397L8.11374 5.0553L8.11307 5.05597ZM10.2064 2.96264L9.05574 4.1133L11.8844 6.94197L13.0351 5.7913L10.2064 2.96264Z" fill="white"/>
</g>
<defs>
<clipPath id="clip0_7509_917">
<rect width="16" height="16" fill="white"/>
</clipPath>
</defs>
</svg>
