<svg width="86" height="61" viewBox="0 0 86 61" fill="none" xmlns="http://www.w3.org/2000/svg">
<path d="M0.420898 24.7607C0.816732 21.6357 1.01465 19.042 1.01465 16.9795C1.01465 15.9482 1.00944 15.3857 0.999023 15.292C0.97819 12.8649 0.811523 10.6826 0.499023 8.74512L0.420898 8.49512C1.68132 8.34928 2.95736 7.90658 4.24902 7.16699L4.3584 7.10449C4.15007 7.71908 3.92611 8.42741 3.68652 9.22949L7.1084 7.10449C7.70215 7.26074 8.43652 7.56283 9.31152 8.01074C10.1344 8.43783 10.9157 9.00553 11.6553 9.71387L17.7021 7.10449C18.2959 7.26074 19.0303 7.56283 19.9053 8.01074C20.7178 8.43783 21.499 9.00553 22.249 9.71387C23.1657 10.5889 23.8115 11.5524 24.1865 12.6045C24.5928 13.6045 24.8115 14.6982 24.8428 15.8857C24.9365 18.917 25.1292 21.2087 25.4209 22.7607L25.5459 23.3232C24.848 23.4066 24.2126 23.5524 23.6396 23.7607C22.7334 24.0941 22.0563 24.4274 21.6084 24.7607C22.0146 22.0316 22.2178 19.391 22.2178 16.8389C22.2074 16.5055 22.2021 16.2087 22.2021 15.9482C22.2021 14.7503 22.0146 13.8441 21.6396 13.2295C21.0042 12.2816 20.098 11.5264 18.9209 10.9639C17.0459 10.068 15.3792 9.62012 13.9209 9.62012C13.1917 9.62012 12.5146 9.72949 11.8896 9.94824C12.6813 10.7712 13.249 11.6566 13.5928 12.6045C13.999 13.6045 14.2178 14.6982 14.249 15.8857C14.3428 18.917 14.5355 21.2087 14.8271 22.7607L14.9521 23.3232C14.2542 23.4066 13.6188 23.5524 13.0459 23.7607C12.1396 24.0941 11.4626 24.4274 11.0146 24.7607C11.4209 22.0316 11.624 19.391 11.624 16.8389C11.6136 16.5055 11.6084 16.2087 11.6084 15.9482C11.6084 14.7503 11.4209 13.8441 11.0459 13.2295C10.4209 12.3128 9.51465 11.5576 8.32715 10.9639C7.28548 10.443 5.74382 9.97428 3.70215 9.55762H3.68652C3.61361 10.318 3.57715 12.0055 3.57715 14.6201V15.167C3.57715 18.0941 3.7959 20.6253 4.2334 22.7607L4.3584 23.3232C3.65007 23.4066 3.01465 23.5524 2.45215 23.7607C1.5459 24.0941 0.868815 24.4274 0.420898 24.7607ZM29.0303 11.6357C29.3011 11.0107 29.7594 10.4378 30.4053 9.91699L31.1396 9.32324L34.7021 7.10449C35.2959 7.26074 36.0303 7.56283 36.9053 8.01074C37.7386 8.43783 38.5199 9.00553 39.249 9.71387C40.1657 10.6097 40.8115 11.5732 41.1865 12.6045C41.5928 13.6045 41.8115 14.6982 41.8428 15.8857C41.9157 18.8441 42.1084 21.1357 42.4209 22.7607L42.5459 23.3232C41.8376 23.4066 41.2021 23.5524 40.6396 23.7607C39.7334 24.0941 39.0563 24.4274 38.6084 24.7607C39.0042 21.9482 39.2021 19.1514 39.2021 16.3701C39.2021 16.2347 39.2021 16.0941 39.2021 15.9482C39.2021 14.7607 39.0146 13.8545 38.6396 13.2295C37.9834 12.2607 37.0771 11.5055 35.9209 10.9639C34.8792 10.4743 33.3376 10.0055 31.2959 9.55762C31.1292 9.81803 31.0459 10.2712 31.0459 10.917C31.0459 11.3232 31.1136 11.8545 31.249 12.5107L29.0303 11.6357ZM35.3115 24.7607C34.7178 24.5524 33.7751 24.1149 32.4834 23.4482C31.5146 22.9482 30.5771 22.1982 29.6709 21.1982C29.0042 20.1566 28.6709 19.193 28.6709 18.3076C28.6709 18.2868 28.6709 18.2607 28.6709 18.2295C28.8271 16.9691 29.4105 15.9482 30.4209 15.167C32.1292 13.8545 34.2699 13.1878 36.8428 13.167C33.6657 14.3337 31.8271 15.6357 31.3271 17.0732C31.223 17.3753 31.1709 17.667 31.1709 17.9482C31.1709 18.4274 31.3376 18.8545 31.6709 19.2295C32.5667 20.1357 33.3219 20.7399 33.9365 21.042C35.8219 21.9691 37.374 22.4899 38.5928 22.6045L35.3115 24.7607ZM59.3115 23.4639C58.9157 24.3597 58.2021 25.4014 57.1709 26.5889C56.4834 27.3805 55.8428 27.9795 55.249 28.3857L51.7803 30.6201C50.8011 30.2451 50.2438 30.0212 50.1084 29.9482C49.5459 29.6462 48.8428 29.1045 47.999 28.3232C47.6657 27.9899 47.3636 27.6462 47.0928 27.292L49.9209 25.8857L51.2959 27.167C52.1396 27.9587 53.2803 28.3545 54.7178 28.3545C54.8219 28.3545 54.9313 28.3545 55.0459 28.3545L55.0771 28.3389C55.7438 27.8076 56.2646 26.4639 56.6396 24.3076C56.7855 23.4535 56.8636 22.7347 56.874 22.1514C56.9053 19.9639 56.9209 18.4847 56.9209 17.7139C56.9209 17.5368 56.9209 17.3857 56.9209 17.2607C56.9105 16.6253 56.9053 16.2035 56.9053 15.9951C56.9053 14.7868 56.6657 13.8701 56.1865 13.2451C55.5199 12.2555 54.6188 11.5003 53.4834 10.9795C52.4001 10.4795 50.9001 9.95866 48.9834 9.41699C48.4001 10.417 48.0199 11.4014 47.8428 12.3701C47.6761 13.2868 47.5928 14.1305 47.5928 14.9014C47.5928 15.266 47.6344 15.6618 47.7178 16.0889C47.9261 17.1514 48.3115 18.0889 48.874 18.9014C49.4678 19.7972 50.3428 20.5264 51.499 21.0889C52.624 21.6305 54.1709 22.1305 56.1396 22.5889L52.8271 24.7607C52.3376 24.6357 51.5928 24.318 50.5928 23.8076C49.874 23.443 49.0928 22.8805 48.249 22.1201C47.3324 21.2243 46.6865 20.2295 46.3115 19.1357C45.8844 17.9691 45.6709 16.8649 45.6709 15.8232C45.6709 14.6878 45.9001 13.5472 46.3584 12.4014C46.848 11.1722 47.4417 10.3076 48.1396 9.80762L48.6865 9.33887L52.249 7.12012C52.9678 7.30762 53.7074 7.61491 54.4678 8.04199C55.1449 8.42741 55.9209 8.98991 56.7959 9.72949C58.1292 10.8545 58.9834 11.8024 59.3584 12.5732L59.4053 15.9014C59.4782 18.641 59.5615 20.3805 59.6553 21.1201C59.749 21.8597 59.7959 22.2399 59.7959 22.2607L59.3115 23.4639ZM64.4834 6.26074C64.6813 5.40658 64.7803 4.51074 64.7803 3.57324C64.7803 3.29199 64.7699 3.01074 64.749 2.72949C64.7386 2.44824 64.7126 2.16699 64.6709 1.88574L64.5771 1.55762C65.9209 1.4222 67.2803 0.958659 68.6553 0.166992L68.7646 0.104492C68.598 0.698242 68.5146 1.5472 68.5146 2.65137C68.5146 2.94303 68.5251 3.26595 68.5459 3.62012C68.5771 3.96387 68.6188 4.34408 68.6709 4.76074C68.2438 4.81283 67.8167 4.89616 67.3896 5.01074C66.973 5.11491 66.5771 5.23991 66.2021 5.38574C65.8376 5.52116 65.5042 5.66699 65.2021 5.82324C64.9105 5.97949 64.6709 6.12533 64.4834 6.26074ZM64.749 24.7607C64.9469 23.1878 65.0928 21.7607 65.1865 20.4795C65.2907 19.1878 65.3428 18.0212 65.3428 16.9795C65.3428 16.1357 65.3324 15.3493 65.3115 14.6201C65.3011 13.8805 65.2751 13.1826 65.2334 12.5264C65.1917 11.8597 65.1344 11.2191 65.0615 10.6045C64.999 9.98991 64.9209 9.37012 64.8271 8.74512L64.749 8.49512C65.3844 8.4222 66.0146 8.27637 66.6396 8.05762C67.2751 7.82845 67.9209 7.53158 68.5771 7.16699L68.6865 7.10449C68.1657 8.90658 67.9053 11.4118 67.9053 14.6201V15.167C67.9053 18.0941 68.124 20.6253 68.5615 22.7607L68.6865 23.3232C68.2386 23.3753 67.8115 23.4587 67.4053 23.5732C67.0094 23.6774 66.6396 23.7972 66.2959 23.9326C65.9626 24.068 65.6605 24.2087 65.3896 24.3545C65.1292 24.5003 64.9157 24.6357 64.749 24.7607ZM79.8271 24.8232C79.2021 24.667 78.4626 24.3649 77.6084 23.917C76.7646 23.4691 75.9834 22.9014 75.2646 22.2139C74.348 21.3285 73.7074 20.3649 73.3428 19.3232C72.8949 18.2399 72.6709 17.1253 72.6709 15.9795C72.7855 14.542 73.0407 13.391 73.4365 12.5264C73.8324 11.6201 74.348 10.8128 74.9834 10.1045C75.2542 9.80241 75.5667 9.52116 75.9209 9.26074L79.2334 7.08887C79.7438 7.22428 80.4886 7.54199 81.4678 8.04199C82.1969 8.41699 82.973 8.97949 83.7959 9.72949C84.0459 9.95866 84.3844 10.3701 84.8115 10.9639L82.2959 12.667C81.7855 11.8545 81.2021 11.2191 80.5459 10.7607C79.7959 10.2399 78.2855 9.78158 76.0146 9.38574L75.999 9.40137C75.6969 9.96387 75.374 10.9066 75.0303 12.2295C74.7803 13.1774 74.6553 14.0628 74.6553 14.8857C74.6553 15.2191 74.6813 15.5576 74.7334 15.9014C74.8688 16.8076 75.2542 17.7399 75.8896 18.6982C76.5459 19.6878 77.4469 20.443 78.5928 20.9639C79.6657 21.4535 81.2021 21.9274 83.2021 22.3857L83.2178 22.3701C83.3844 22.1097 83.4678 21.6566 83.4678 21.0107C83.4678 20.6045 83.4001 20.0732 83.2646 19.417L85.4834 20.292C85.2021 20.9274 84.7438 21.5003 84.1084 22.0107C83.6292 22.3962 83.3896 22.5941 83.3896 22.6045L79.8271 24.8232ZM0.420898 60.7607C0.816732 57.6357 1.01465 55.042 1.01465 52.9795C1.01465 51.9482 1.00944 51.3857 0.999023 51.292C0.97819 48.8649 0.811523 46.6826 0.499023 44.7451L0.420898 44.4951C1.68132 44.3493 2.95736 43.9066 4.24902 43.167L4.3584 43.1045C4.15007 43.7191 3.92611 44.4274 3.68652 45.2295L7.1084 43.1045C7.70215 43.2607 8.43652 43.5628 9.31152 44.0107C10.1344 44.4378 10.9157 45.0055 11.6553 45.7139L17.7021 43.1045C18.2959 43.2607 19.0303 43.5628 19.9053 44.0107C20.7178 44.4378 21.499 45.0055 22.249 45.7139C23.1657 46.5889 23.8115 47.5524 24.1865 48.6045C24.5928 49.6045 24.8115 50.6982 24.8428 51.8857C24.9365 54.917 25.1292 57.2087 25.4209 58.7607L25.5459 59.3232C24.848 59.4066 24.2126 59.5524 23.6396 59.7607C22.7334 60.0941 22.0563 60.4274 21.6084 60.7607C22.0146 58.0316 22.2178 55.391 22.2178 52.8389C22.2074 52.5055 22.2021 52.2087 22.2021 51.9482C22.2021 50.7503 22.0146 49.8441 21.6396 49.2295C21.0042 48.2816 20.098 47.5264 18.9209 46.9639C17.0459 46.068 15.3792 45.6201 13.9209 45.6201C13.1917 45.6201 12.5146 45.7295 11.8896 45.9482C12.6813 46.7712 13.249 47.6566 13.5928 48.6045C13.999 49.6045 14.2178 50.6982 14.249 51.8857C14.3428 54.917 14.5355 57.2087 14.8271 58.7607L14.9521 59.3232C14.2542 59.4066 13.6188 59.5524 13.0459 59.7607C12.1396 60.0941 11.4626 60.4274 11.0146 60.7607C11.4209 58.0316 11.624 55.391 11.624 52.8389C11.6136 52.5055 11.6084 52.2087 11.6084 51.9482C11.6084 50.7503 11.4209 49.8441 11.0459 49.2295C10.4209 48.3128 9.51465 47.5576 8.32715 46.9639C7.28548 46.443 5.74382 45.9743 3.70215 45.5576H3.68652C3.61361 46.318 3.57715 48.0055 3.57715 50.6201V51.167C3.57715 54.0941 3.7959 56.6253 4.2334 58.7607L4.3584 59.3232C3.65007 59.4066 3.01465 59.5524 2.45215 59.7607C1.5459 60.0941 0.868815 60.4274 0.420898 60.7607ZM29.0303 47.6357C29.3011 47.0107 29.7594 46.4378 30.4053 45.917L31.1396 45.3232L34.7021 43.1045C35.2959 43.2607 36.0303 43.5628 36.9053 44.0107C37.7386 44.4378 38.5199 45.0055 39.249 45.7139C40.1657 46.6097 40.8115 47.5732 41.1865 48.6045C41.5928 49.6045 41.8115 50.6982 41.8428 51.8857C41.9157 54.8441 42.1084 57.1357 42.4209 58.7607L42.5459 59.3232C41.8376 59.4066 41.2021 59.5524 40.6396 59.7607C39.7334 60.0941 39.0563 60.4274 38.6084 60.7607C39.0042 57.9482 39.2021 55.1514 39.2021 52.3701C39.2021 52.2347 39.2021 52.0941 39.2021 51.9482C39.2021 50.7607 39.0146 49.8545 38.6396 49.2295C37.9834 48.2607 37.0771 47.5055 35.9209 46.9639C34.8792 46.4743 33.3376 46.0055 31.2959 45.5576C31.1292 45.818 31.0459 46.2712 31.0459 46.917C31.0459 47.3232 31.1136 47.8545 31.249 48.5107L29.0303 47.6357ZM35.3115 60.7607C34.7178 60.5524 33.7751 60.1149 32.4834 59.4482C31.5146 58.9482 30.5771 58.1982 29.6709 57.1982C29.0042 56.1566 28.6709 55.193 28.6709 54.3076C28.6709 54.2868 28.6709 54.2607 28.6709 54.2295C28.8271 52.9691 29.4105 51.9482 30.4209 51.167C32.1292 49.8545 34.2699 49.1878 36.8428 49.167C33.6657 50.3337 31.8271 51.6357 31.3271 53.0732C31.223 53.3753 31.1709 53.667 31.1709 53.9482C31.1709 54.4274 31.3376 54.8545 31.6709 55.2295C32.5667 56.1357 33.3219 56.7399 33.9365 57.042C35.8219 57.9691 37.374 58.4899 38.5928 58.6045L35.3115 60.7607ZM46.8428 60.7607C47.0719 59.1878 47.2386 57.5316 47.3428 55.792C47.4574 54.0524 47.5146 52.2087 47.5146 50.2607C47.5146 49.9274 47.5146 49.6201 47.5146 49.3389C47.5146 49.0576 47.5094 48.8024 47.499 48.5732L47.4053 45.0107C46.6553 45.0316 45.9417 45.0732 45.2646 45.1357C44.598 45.1982 43.9521 45.2868 43.3271 45.4014C43.473 45.1722 43.6084 44.8649 43.7334 44.4795C43.848 44.0837 43.9365 43.6253 43.999 43.1045L44.249 43.1826C44.5511 43.2764 44.9574 43.3441 45.4678 43.3857C45.9782 43.417 46.598 43.4482 47.3271 43.4795C47.2751 42.5107 47.2178 41.6618 47.1553 40.9326C47.0928 40.2035 47.0199 39.5837 46.9365 39.0732L46.8428 38.542C47.4782 38.4691 48.1084 38.3232 48.7334 38.1045C49.3688 37.8753 50.0511 37.5576 50.7803 37.1514C50.4886 39.0055 50.2855 41.1253 50.1709 43.5107C50.9626 43.4899 51.6969 43.4482 52.374 43.3857C53.0615 43.3128 53.7021 43.2191 54.2959 43.1045C53.9521 43.8128 53.7386 44.5785 53.6553 45.4014L53.4053 45.3389C53.0511 45.2555 52.598 45.1982 52.0459 45.167C51.4938 45.1253 50.848 45.0837 50.1084 45.042C50.098 45.5107 50.0876 45.9795 50.0771 46.4482C50.0771 46.917 50.0771 47.4014 50.0771 47.9014V48.4482C50.0876 50.9587 50.1344 53.068 50.2178 54.7764C50.3011 56.4847 50.4469 57.8128 50.6553 58.7607L50.7803 59.3232C50.4053 59.3753 50.0199 59.4587 49.624 59.5732C49.2282 59.6774 48.848 59.8024 48.4834 59.9482C48.1292 60.0837 47.8063 60.2243 47.5146 60.3701C47.223 60.516 46.999 60.6462 46.8428 60.7607Z" fill="white"/>
</svg>
