<svg width="155" height="221" viewBox="0 0 155 221" fill="none" xmlns="http://www.w3.org/2000/svg">
<path fill-rule="evenodd" clip-rule="evenodd" d="M-20.0761 4.80435C-19.0135 4.80435 -18.1522 3.72886 -18.1522 2.40217C-18.1522 1.07549 -19.0135 0 -20.0761 0C-21.1386 0 -22 1.07549 -22 2.40217C-22 3.72886 -21.1386 4.80435 -20.0761 4.80435ZM-20.0761 100.891C-19.0135 100.891 -18.1522 99.8158 -18.1522 98.4891C-18.1522 97.1625 -19.0135 96.087 -20.0761 96.087C-21.1386 96.087 -22 97.1625 -22 98.4891C-22 99.8158 -21.1386 100.891 -20.0761 100.891ZM-18.1522 50.4457C-18.1522 51.7723 -19.0135 52.8478 -20.0761 52.8478C-21.1386 52.8478 -22 51.7723 -22 50.4457C-22 49.119 -21.1386 48.0435 -20.0761 48.0435C-19.0135 48.0435 -18.1522 49.119 -18.1522 50.4457ZM-20.0761 148.935C-19.0135 148.935 -18.1522 147.859 -18.1522 146.533C-18.1522 145.206 -19.0135 144.13 -20.0761 144.13C-21.1386 144.13 -22 145.206 -22 146.533C-22 147.859 -21.1386 148.935 -20.0761 148.935ZM-18.1522 218.598C-18.1522 219.924 -19.0135 221 -20.0761 221C-21.1386 221 -22 219.924 -22 218.598C-22 217.271 -21.1386 216.196 -20.0761 216.196C-19.0135 216.196 -18.1522 217.271 -18.1522 218.598ZM-20.0761 28.8261C-19.0135 28.8261 -18.1522 27.7506 -18.1522 26.4239C-18.1522 25.0972 -19.0135 24.0217 -20.0761 24.0217C-21.1386 24.0217 -22 25.0972 -22 26.4239C-22 27.7506 -21.1386 28.8261 -20.0761 28.8261ZM-18.1522 122.511C-18.1522 123.838 -19.0135 124.913 -20.0761 124.913C-21.1386 124.913 -22 123.838 -22 122.511C-22 121.184 -21.1386 120.109 -20.0761 120.109C-19.0135 120.109 -18.1522 121.184 -18.1522 122.511ZM-20.0761 196.978C-19.0135 196.978 -18.1522 195.903 -18.1522 194.576C-18.1522 193.249 -19.0135 192.174 -20.0761 192.174C-21.1386 192.174 -22 193.249 -22 194.576C-22 195.903 -21.1386 196.978 -20.0761 196.978ZM-18.1522 74.4674C-18.1522 75.7941 -19.0135 76.8696 -20.0761 76.8696C-21.1386 76.8696 -22 75.7941 -22 74.4674C-22 73.1407 -21.1386 72.0652 -20.0761 72.0652C-19.0135 72.0652 -18.1522 73.1407 -18.1522 74.4674ZM-20.0761 172.957C-19.0135 172.957 -18.1522 171.881 -18.1522 170.554C-18.1522 169.228 -19.0135 168.152 -20.0761 168.152C-21.1386 168.152 -22 169.228 -22 170.554C-22 171.881 -21.1386 172.957 -20.0761 172.957ZM58.8043 2.40217C58.8043 3.72886 57.943 4.80435 56.8804 4.80435C55.8179 4.80435 54.9565 3.72886 54.9565 2.40217C54.9565 1.07549 55.8179 0 56.8804 0C57.943 0 58.8043 1.07549 58.8043 2.40217ZM56.8804 100.891C57.943 100.891 58.8043 99.8158 58.8043 98.4891C58.8043 97.1625 57.943 96.087 56.8804 96.087C55.8179 96.087 54.9565 97.1625 54.9565 98.4891C54.9565 99.8158 55.8179 100.891 56.8804 100.891ZM58.8043 50.4457C58.8043 51.7723 57.943 52.8478 56.8804 52.8478C55.8179 52.8478 54.9565 51.7723 54.9565 50.4457C54.9565 49.119 55.8179 48.0435 56.8804 48.0435C57.943 48.0435 58.8043 49.119 58.8043 50.4457ZM56.8804 148.935C57.943 148.935 58.8043 147.859 58.8043 146.533C58.8043 145.206 57.943 144.13 56.8804 144.13C55.8179 144.13 54.9565 145.206 54.9565 146.533C54.9565 147.859 55.8179 148.935 56.8804 148.935ZM58.8043 218.598C58.8043 219.924 57.943 221 56.8804 221C55.8179 221 54.9565 219.924 54.9565 218.598C54.9565 217.271 55.8179 216.196 56.8804 216.196C57.943 216.196 58.8043 217.271 58.8043 218.598ZM56.8804 28.8261C57.943 28.8261 58.8043 27.7506 58.8043 26.4239C58.8043 25.0972 57.943 24.0217 56.8804 24.0217C55.8179 24.0217 54.9565 25.0972 54.9565 26.4239C54.9565 27.7506 55.8179 28.8261 56.8804 28.8261ZM58.8043 122.511C58.8043 123.838 57.943 124.913 56.8804 124.913C55.8179 124.913 54.9565 123.838 54.9565 122.511C54.9565 121.184 55.8179 120.109 56.8804 120.109C57.943 120.109 58.8043 121.184 58.8043 122.511ZM56.8804 196.978C57.943 196.978 58.8043 195.903 58.8043 194.576C58.8043 193.249 57.943 192.174 56.8804 192.174C55.8179 192.174 54.9565 193.249 54.9565 194.576C54.9565 195.903 55.8179 196.978 56.8804 196.978ZM58.8043 74.4674C58.8043 75.7941 57.943 76.8696 56.8804 76.8696C55.8179 76.8696 54.9565 75.7941 54.9565 74.4674C54.9565 73.1407 55.8179 72.0652 56.8804 72.0652C57.943 72.0652 58.8043 73.1407 58.8043 74.4674ZM56.8804 172.957C57.943 172.957 58.8043 171.881 58.8043 170.554C58.8043 169.228 57.943 168.152 56.8804 168.152C55.8179 168.152 54.9565 169.228 54.9565 170.554C54.9565 171.881 55.8179 172.957 56.8804 172.957ZM20.3261 2.40217C20.3261 3.72886 19.4647 4.80435 18.4022 4.80435C17.3396 4.80435 16.4783 3.72886 16.4783 2.40217C16.4783 1.07549 17.3396 0 18.4022 0C19.4647 0 20.3261 1.07549 20.3261 2.40217ZM18.4022 100.891C19.4647 100.891 20.3261 99.8158 20.3261 98.4891C20.3261 97.1625 19.4647 96.087 18.4022 96.087C17.3396 96.087 16.4783 97.1625 16.4783 98.4891C16.4783 99.8158 17.3396 100.891 18.4022 100.891ZM20.3261 50.4457C20.3261 51.7723 19.4647 52.8478 18.4022 52.8478C17.3396 52.8478 16.4783 51.7723 16.4783 50.4457C16.4783 49.119 17.3396 48.0435 18.4022 48.0435C19.4647 48.0435 20.3261 49.119 20.3261 50.4457ZM18.4022 148.935C19.4647 148.935 20.3261 147.859 20.3261 146.533C20.3261 145.206 19.4647 144.13 18.4022 144.13C17.3396 144.13 16.4783 145.206 16.4783 146.533C16.4783 147.859 17.3396 148.935 18.4022 148.935ZM20.3261 218.598C20.3261 219.924 19.4647 221 18.4022 221C17.3396 221 16.4783 219.924 16.4783 218.598C16.4783 217.271 17.3396 216.196 18.4022 216.196C19.4647 216.196 20.3261 217.271 20.3261 218.598ZM18.4022 28.8261C19.4647 28.8261 20.3261 27.7506 20.3261 26.4239C20.3261 25.0972 19.4647 24.0217 18.4022 24.0217C17.3396 24.0217 16.4783 25.0972 16.4783 26.4239C16.4783 27.7506 17.3396 28.8261 18.4022 28.8261ZM20.3261 122.511C20.3261 123.838 19.4647 124.913 18.4022 124.913C17.3396 124.913 16.4783 123.838 16.4783 122.511C16.4783 121.184 17.3396 120.109 18.4022 120.109C19.4647 120.109 20.3261 121.184 20.3261 122.511ZM18.4022 196.978C19.4647 196.978 20.3261 195.903 20.3261 194.576C20.3261 193.249 19.4647 192.174 18.4022 192.174C17.3396 192.174 16.4783 193.249 16.4783 194.576C16.4783 195.903 17.3396 196.978 18.4022 196.978ZM20.3261 74.4674C20.3261 75.7941 19.4647 76.8696 18.4022 76.8696C17.3396 76.8696 16.4783 75.7941 16.4783 74.4674C16.4783 73.1407 17.3396 72.0652 18.4022 72.0652C19.4647 72.0652 20.3261 73.1407 20.3261 74.4674ZM18.4022 172.957C19.4647 172.957 20.3261 171.881 20.3261 170.554C20.3261 169.228 19.4647 168.152 18.4022 168.152C17.3396 168.152 16.4783 169.228 16.4783 170.554C16.4783 171.881 17.3396 172.957 18.4022 172.957ZM97.2826 2.40217C97.2826 3.72886 96.4212 4.80435 95.3587 4.80435C94.2962 4.80435 93.4348 3.72886 93.4348 2.40217C93.4348 1.07549 94.2962 0 95.3587 0C96.4212 0 97.2826 1.07549 97.2826 2.40217ZM95.3587 100.891C96.4212 100.891 97.2826 99.8158 97.2826 98.4891C97.2826 97.1625 96.4212 96.087 95.3587 96.087C94.2962 96.087 93.4348 97.1625 93.4348 98.4891C93.4348 99.8158 94.2962 100.891 95.3587 100.891ZM97.2826 50.4457C97.2826 51.7723 96.4212 52.8478 95.3587 52.8478C94.2962 52.8478 93.4348 51.7723 93.4348 50.4457C93.4348 49.119 94.2962 48.0435 95.3587 48.0435C96.4212 48.0435 97.2826 49.119 97.2826 50.4457ZM95.3587 148.935C96.4212 148.935 97.2826 147.859 97.2826 146.533C97.2826 145.206 96.4212 144.13 95.3587 144.13C94.2962 144.13 93.4348 145.206 93.4348 146.533C93.4348 147.859 94.2962 148.935 95.3587 148.935ZM97.2826 218.598C97.2826 219.924 96.4212 221 95.3587 221C94.2962 221 93.4348 219.924 93.4348 218.598C93.4348 217.271 94.2962 216.196 95.3587 216.196C96.4212 216.196 97.2826 217.271 97.2826 218.598ZM95.3587 28.8261C96.4212 28.8261 97.2826 27.7506 97.2826 26.4239C97.2826 25.0972 96.4212 24.0217 95.3587 24.0217C94.2962 24.0217 93.4348 25.0972 93.4348 26.4239C93.4348 27.7506 94.2962 28.8261 95.3587 28.8261ZM97.2826 122.511C97.2826 123.838 96.4212 124.913 95.3587 124.913C94.2962 124.913 93.4348 123.838 93.4348 122.511C93.4348 121.184 94.2962 120.109 95.3587 120.109C96.4212 120.109 97.2826 121.184 97.2826 122.511ZM95.3587 196.978C96.4212 196.978 97.2826 195.903 97.2826 194.576C97.2826 193.249 96.4212 192.174 95.3587 192.174C94.2962 192.174 93.4348 193.249 93.4348 194.576C93.4348 195.903 94.2962 196.978 95.3587 196.978ZM97.2826 74.4674C97.2826 75.7941 96.4212 76.8696 95.3587 76.8696C94.2962 76.8696 93.4348 75.7941 93.4348 74.4674C93.4348 73.1407 94.2962 72.0652 95.3587 72.0652C96.4212 72.0652 97.2826 73.1407 97.2826 74.4674ZM95.3587 172.957C96.4212 172.957 97.2826 171.881 97.2826 170.554C97.2826 169.228 96.4212 168.152 95.3587 168.152C94.2962 168.152 93.4348 169.228 93.4348 170.554C93.4348 171.881 94.2962 172.957 95.3587 172.957ZM135.761 2.40217C135.761 3.72886 134.9 4.80435 133.837 4.80435C132.774 4.80435 131.913 3.72886 131.913 2.40217C131.913 1.07549 132.774 0 133.837 0C134.9 0 135.761 1.07549 135.761 2.40217ZM133.837 100.891C134.9 100.891 135.761 99.8158 135.761 98.4891C135.761 97.1625 134.9 96.087 133.837 96.087C132.774 96.087 131.913 97.1625 131.913 98.4891C131.913 99.8158 132.774 100.891 133.837 100.891ZM135.761 50.4457C135.761 51.7723 134.9 52.8478 133.837 52.8478C132.774 52.8478 131.913 51.7723 131.913 50.4457C131.913 49.119 132.774 48.0435 133.837 48.0435C134.9 48.0435 135.761 49.119 135.761 50.4457ZM133.837 148.935C134.9 148.935 135.761 147.859 135.761 146.533C135.761 145.206 134.9 144.13 133.837 144.13C132.774 144.13 131.913 145.206 131.913 146.533C131.913 147.859 132.774 148.935 133.837 148.935ZM135.761 218.598C135.761 219.924 134.9 221 133.837 221C132.774 221 131.913 219.924 131.913 218.598C131.913 217.271 132.774 216.196 133.837 216.196C134.9 216.196 135.761 217.271 135.761 218.598ZM133.837 28.8261C134.9 28.8261 135.761 27.7506 135.761 26.4239C135.761 25.0972 134.9 24.0217 133.837 24.0217C132.774 24.0217 131.913 25.0972 131.913 26.4239C131.913 27.7506 132.774 28.8261 133.837 28.8261ZM135.761 122.511C135.761 123.838 134.9 124.913 133.837 124.913C132.774 124.913 131.913 123.838 131.913 122.511C131.913 121.184 132.774 120.109 133.837 120.109C134.9 120.109 135.761 121.184 135.761 122.511ZM133.837 196.978C134.9 196.978 135.761 195.903 135.761 194.576C135.761 193.249 134.9 192.174 133.837 192.174C132.774 192.174 131.913 193.249 131.913 194.576C131.913 195.903 132.774 196.978 133.837 196.978ZM135.761 74.4674C135.761 75.7941 134.9 76.8696 133.837 76.8696C132.774 76.8696 131.913 75.7941 131.913 74.4674C131.913 73.1407 132.774 72.0652 133.837 72.0652C134.9 72.0652 135.761 73.1407 135.761 74.4674ZM133.837 172.957C134.9 172.957 135.761 171.881 135.761 170.554C135.761 169.228 134.9 168.152 133.837 168.152C132.774 168.152 131.913 169.228 131.913 170.554C131.913 171.881 132.774 172.957 133.837 172.957ZM1.08696 2.40217C1.08696 3.72886 0.225592 4.80435 -0.836956 4.80435C-1.89951 4.80435 -2.76087 3.72886 -2.76087 2.40217C-2.76087 1.07549 -1.89951 0 -0.836956 0C0.225592 0 1.08696 1.07549 1.08696 2.40217ZM-0.836956 100.891C0.225592 100.891 1.08696 99.8158 1.08696 98.4891C1.08696 97.1625 0.225592 96.087 -0.836956 96.087C-1.89951 96.087 -2.76087 97.1625 -2.76087 98.4891C-2.76087 99.8158 -1.89951 100.891 -0.836956 100.891ZM1.08696 50.4457C1.08696 51.7723 0.225592 52.8478 -0.836956 52.8478C-1.89951 52.8478 -2.76087 51.7723 -2.76087 50.4457C-2.76087 49.119 -1.89951 48.0435 -0.836956 48.0435C0.225592 48.0435 1.08696 49.119 1.08696 50.4457ZM-0.836956 148.935C0.225592 148.935 1.08696 147.859 1.08696 146.533C1.08696 145.206 0.225592 144.13 -0.836956 144.13C-1.89951 144.13 -2.76087 145.206 -2.76087 146.533C-2.76087 147.859 -1.89951 148.935 -0.836956 148.935ZM1.08696 218.598C1.08696 219.924 0.225592 221 -0.836956 221C-1.89951 221 -2.76087 219.924 -2.76087 218.598C-2.76087 217.271 -1.89951 216.196 -0.836956 216.196C0.225592 216.196 1.08696 217.271 1.08696 218.598ZM-0.836956 28.8261C0.225592 28.8261 1.08696 27.7506 1.08696 26.4239C1.08696 25.0972 0.225592 24.0217 -0.836956 24.0217C-1.89951 24.0217 -2.76087 25.0972 -2.76087 26.4239C-2.76087 27.7506 -1.89951 28.8261 -0.836956 28.8261ZM1.08696 122.511C1.08696 123.838 0.225592 124.913 -0.836956 124.913C-1.89951 124.913 -2.76087 123.838 -2.76087 122.511C-2.76087 121.184 -1.89951 120.109 -0.836956 120.109C0.225592 120.109 1.08696 121.184 1.08696 122.511ZM-0.836956 196.978C0.225592 196.978 1.08696 195.903 1.08696 194.576C1.08696 193.249 0.225592 192.174 -0.836956 192.174C-1.89951 192.174 -2.76087 193.249 -2.76087 194.576C-2.76087 195.903 -1.89951 196.978 -0.836956 196.978ZM1.08696 74.4674C1.08696 75.7941 0.225592 76.8696 -0.836956 76.8696C-1.89951 76.8696 -2.76087 75.7941 -2.76087 74.4674C-2.76087 73.1407 -1.89951 72.0652 -0.836956 72.0652C0.225592 72.0652 1.08696 73.1407 1.08696 74.4674ZM-0.836956 172.957C0.225592 172.957 1.08696 171.881 1.08696 170.554C1.08696 169.228 0.225592 168.152 -0.836956 168.152C-1.89951 168.152 -2.76087 169.228 -2.76087 170.554C-2.76087 171.881 -1.89951 172.957 -0.836956 172.957ZM78.0435 2.40217C78.0435 3.72886 77.1821 4.80435 76.1196 4.80435C75.057 4.80435 74.1957 3.72886 74.1957 2.40217C74.1957 1.07549 75.057 0 76.1196 0C77.1821 0 78.0435 1.07549 78.0435 2.40217ZM76.1196 100.891C77.1821 100.891 78.0435 99.8158 78.0435 98.4891C78.0435 97.1625 77.1821 96.087 76.1196 96.087C75.057 96.087 74.1957 97.1625 74.1957 98.4891C74.1957 99.8158 75.057 100.891 76.1196 100.891ZM78.0435 50.4457C78.0435 51.7723 77.1821 52.8478 76.1196 52.8478C75.057 52.8478 74.1957 51.7723 74.1957 50.4457C74.1957 49.119 75.057 48.0435 76.1196 48.0435C77.1821 48.0435 78.0435 49.119 78.0435 50.4457ZM76.1196 148.935C77.1821 148.935 78.0435 147.859 78.0435 146.533C78.0435 145.206 77.1821 144.13 76.1196 144.13C75.057 144.13 74.1957 145.206 74.1957 146.533C74.1957 147.859 75.057 148.935 76.1196 148.935ZM78.0435 218.598C78.0435 219.924 77.1821 221 76.1196 221C75.057 221 74.1957 219.924 74.1957 218.598C74.1957 217.271 75.057 216.196 76.1196 216.196C77.1821 216.196 78.0435 217.271 78.0435 218.598ZM76.1196 28.8261C77.1821 28.8261 78.0435 27.7506 78.0435 26.4239C78.0435 25.0972 77.1821 24.0217 76.1196 24.0217C75.057 24.0217 74.1957 25.0972 74.1957 26.4239C74.1957 27.7506 75.057 28.8261 76.1196 28.8261ZM78.0435 122.511C78.0435 123.838 77.1821 124.913 76.1196 124.913C75.057 124.913 74.1957 123.838 74.1957 122.511C74.1957 121.184 75.057 120.109 76.1196 120.109C77.1821 120.109 78.0435 121.184 78.0435 122.511ZM76.1196 196.978C77.1821 196.978 78.0435 195.903 78.0435 194.576C78.0435 193.249 77.1821 192.174 76.1196 192.174C75.057 192.174 74.1957 193.249 74.1957 194.576C74.1957 195.903 75.057 196.978 76.1196 196.978ZM78.0435 74.4674C78.0435 75.7941 77.1821 76.8696 76.1196 76.8696C75.057 76.8696 74.1957 75.7941 74.1957 74.4674C74.1957 73.1407 75.057 72.0652 76.1196 72.0652C77.1821 72.0652 78.0435 73.1407 78.0435 74.4674ZM76.1196 172.957C77.1821 172.957 78.0435 171.881 78.0435 170.554C78.0435 169.228 77.1821 168.152 76.1196 168.152C75.057 168.152 74.1957 169.228 74.1957 170.554C74.1957 171.881 75.057 172.957 76.1196 172.957ZM39.5652 2.40217C39.5652 3.72886 38.7039 4.80435 37.6413 4.80435C36.5788 4.80435 35.7174 3.72886 35.7174 2.40217C35.7174 1.07549 36.5788 0 37.6413 0C38.7039 0 39.5652 1.07549 39.5652 2.40217ZM37.6413 100.891C38.7039 100.891 39.5652 99.8158 39.5652 98.4891C39.5652 97.1625 38.7039 96.087 37.6413 96.087C36.5788 96.087 35.7174 97.1625 35.7174 98.4891C35.7174 99.8158 36.5788 100.891 37.6413 100.891ZM39.5652 50.4457C39.5652 51.7723 38.7039 52.8478 37.6413 52.8478C36.5788 52.8478 35.7174 51.7723 35.7174 50.4457C35.7174 49.119 36.5788 48.0435 37.6413 48.0435C38.7039 48.0435 39.5652 49.119 39.5652 50.4457ZM37.6413 148.935C38.7039 148.935 39.5652 147.859 39.5652 146.533C39.5652 145.206 38.7039 144.13 37.6413 144.13C36.5788 144.13 35.7174 145.206 35.7174 146.533C35.7174 147.859 36.5788 148.935 37.6413 148.935ZM39.5652 218.598C39.5652 219.924 38.7039 221 37.6413 221C36.5788 221 35.7174 219.924 35.7174 218.598C35.7174 217.271 36.5788 216.196 37.6413 216.196C38.7039 216.196 39.5652 217.271 39.5652 218.598ZM37.6413 28.8261C38.7039 28.8261 39.5652 27.7506 39.5652 26.4239C39.5652 25.0972 38.7039 24.0217 37.6413 24.0217C36.5788 24.0217 35.7174 25.0972 35.7174 26.4239C35.7174 27.7506 36.5788 28.8261 37.6413 28.8261ZM39.5652 122.511C39.5652 123.838 38.7039 124.913 37.6413 124.913C36.5788 124.913 35.7174 123.838 35.7174 122.511C35.7174 121.184 36.5788 120.109 37.6413 120.109C38.7039 120.109 39.5652 121.184 39.5652 122.511ZM37.6413 196.978C38.7039 196.978 39.5652 195.903 39.5652 194.576C39.5652 193.249 38.7039 192.174 37.6413 192.174C36.5788 192.174 35.7174 193.249 35.7174 194.576C35.7174 195.903 36.5788 196.978 37.6413 196.978ZM39.5652 74.4674C39.5652 75.7941 38.7039 76.8696 37.6413 76.8696C36.5788 76.8696 35.7174 75.7941 35.7174 74.4674C35.7174 73.1407 36.5788 72.0652 37.6413 72.0652C38.7039 72.0652 39.5652 73.1407 39.5652 74.4674ZM37.6413 172.957C38.7039 172.957 39.5652 171.881 39.5652 170.554C39.5652 169.228 38.7039 168.152 37.6413 168.152C36.5788 168.152 35.7174 169.228 35.7174 170.554C35.7174 171.881 36.5788 172.957 37.6413 172.957ZM116.522 2.40217C116.522 3.72886 115.66 4.80435 114.598 4.80435C113.535 4.80435 112.674 3.72886 112.674 2.40217C112.674 1.07549 113.535 0 114.598 0C115.66 0 116.522 1.07549 116.522 2.40217ZM114.598 100.891C115.66 100.891 116.522 99.8158 116.522 98.4891C116.522 97.1625 115.66 96.087 114.598 96.087C113.535 96.087 112.674 97.1625 112.674 98.4891C112.674 99.8158 113.535 100.891 114.598 100.891ZM116.522 50.4457C116.522 51.7723 115.66 52.8478 114.598 52.8478C113.535 52.8478 112.674 51.7723 112.674 50.4457C112.674 49.119 113.535 48.0435 114.598 48.0435C115.66 48.0435 116.522 49.119 116.522 50.4457ZM114.598 148.935C115.66 148.935 116.522 147.859 116.522 146.533C116.522 145.206 115.66 144.13 114.598 144.13C113.535 144.13 112.674 145.206 112.674 146.533C112.674 147.859 113.535 148.935 114.598 148.935ZM116.522 218.598C116.522 219.924 115.66 221 114.598 221C113.535 221 112.674 219.924 112.674 218.598C112.674 217.271 113.535 216.196 114.598 216.196C115.66 216.196 116.522 217.271 116.522 218.598ZM114.598 28.8261C115.66 28.8261 116.522 27.7506 116.522 26.4239C116.522 25.0972 115.66 24.0217 114.598 24.0217C113.535 24.0217 112.674 25.0972 112.674 26.4239C112.674 27.7506 113.535 28.8261 114.598 28.8261ZM116.522 122.511C116.522 123.838 115.66 124.913 114.598 124.913C113.535 124.913 112.674 123.838 112.674 122.511C112.674 121.184 113.535 120.109 114.598 120.109C115.66 120.109 116.522 121.184 116.522 122.511ZM114.598 196.978C115.66 196.978 116.522 195.903 116.522 194.576C116.522 193.249 115.66 192.174 114.598 192.174C113.535 192.174 112.674 193.249 112.674 194.576C112.674 195.903 113.535 196.978 114.598 196.978ZM116.522 74.4674C116.522 75.7941 115.66 76.8696 114.598 76.8696C113.535 76.8696 112.674 75.7941 112.674 74.4674C112.674 73.1407 113.535 72.0652 114.598 72.0652C115.66 72.0652 116.522 73.1407 116.522 74.4674ZM114.598 172.957C115.66 172.957 116.522 171.881 116.522 170.554C116.522 169.228 115.66 168.152 114.598 168.152C113.535 168.152 112.674 169.228 112.674 170.554C112.674 171.881 113.535 172.957 114.598 172.957ZM155 2.40217C155 3.72886 154.139 4.80435 153.076 4.80435C152.014 4.80435 151.152 3.72886 151.152 2.40217C151.152 1.07549 152.014 0 153.076 0C154.139 0 155 1.07549 155 2.40217ZM153.076 100.891C154.139 100.891 155 99.8158 155 98.4891C155 97.1625 154.139 96.087 153.076 96.087C152.014 96.087 151.152 97.1625 151.152 98.4891C151.152 99.8158 152.014 100.891 153.076 100.891ZM155 50.4457C155 51.7723 154.139 52.8478 153.076 52.8478C152.014 52.8478 151.152 51.7723 151.152 50.4457C151.152 49.119 152.014 48.0435 153.076 48.0435C154.139 48.0435 155 49.119 155 50.4457ZM153.076 148.935C154.139 148.935 155 147.859 155 146.533C155 145.206 154.139 144.13 153.076 144.13C152.014 144.13 151.152 145.206 151.152 146.533C151.152 147.859 152.014 148.935 153.076 148.935ZM155 218.598C155 219.924 154.139 221 153.076 221C152.014 221 151.152 219.924 151.152 218.598C151.152 217.271 152.014 216.196 153.076 216.196C154.139 216.196 155 217.271 155 218.598ZM153.076 28.8261C154.139 28.8261 155 27.7506 155 26.4239C155 25.0972 154.139 24.0217 153.076 24.0217C152.014 24.0217 151.152 25.0972 151.152 26.4239C151.152 27.7506 152.014 28.8261 153.076 28.8261ZM155 122.511C155 123.838 154.139 124.913 153.076 124.913C152.014 124.913 151.152 123.838 151.152 122.511C151.152 121.184 152.014 120.109 153.076 120.109C154.139 120.109 155 121.184 155 122.511ZM153.076 196.978C154.139 196.978 155 195.903 155 194.576C155 193.249 154.139 192.174 153.076 192.174C152.014 192.174 151.152 193.249 151.152 194.576C151.152 195.903 152.014 196.978 153.076 196.978ZM155 74.4674C155 75.7941 154.139 76.8696 153.076 76.8696C152.014 76.8696 151.152 75.7941 151.152 74.4674C151.152 73.1407 152.014 72.0652 153.076 72.0652C154.139 72.0652 155 73.1407 155 74.4674ZM153.076 172.957C154.139 172.957 155 171.881 155 170.554C155 169.228 154.139 168.152 153.076 168.152C152.014 168.152 151.152 169.228 151.152 170.554C151.152 171.881 152.014 172.957 153.076 172.957Z" fill="white"/>
</svg>
