<svg width="297" height="385" viewBox="0 0 297 385" fill="none" xmlns="http://www.w3.org/2000/svg">
<path fill-rule="evenodd" clip-rule="evenodd" d="M2.5 4C3.60457 4 4.5 3.10457 4.5 2C4.5 0.895431 3.60457 0 2.5 0C1.39543 0 0.5 0.895431 0.5 2C0.5 3.10457 1.39543 4 2.5 4ZM2.5 84C3.60457 84 4.5 83.1046 4.5 82C4.5 80.8954 3.60457 80 2.5 80C1.39543 80 0.5 80.8954 0.5 82C0.5 83.1046 1.39543 84 2.5 84ZM4.5 42C4.5 43.1046 3.60457 44 2.5 44C1.39543 44 0.5 43.1046 0.5 42C0.5 40.8954 1.39543 40 2.5 40C3.60457 40 4.5 40.8954 4.5 42ZM2.5 124C3.60457 124 4.5 123.105 4.5 122C4.5 120.895 3.60457 120 2.5 120C1.39543 120 0.5 120.895 0.5 122C0.5 123.105 1.39543 124 2.5 124ZM4.5 182C4.5 183.105 3.60457 184 2.5 184C1.39543 184 0.5 183.105 0.5 182C0.5 180.895 1.39543 180 2.5 180C3.60457 180 4.5 180.895 4.5 182ZM2.5 24C3.60457 24 4.5 23.1046 4.5 22C4.5 20.8954 3.60457 20 2.5 20C1.39543 20 0.5 20.8954 0.5 22C0.5 23.1046 1.39543 24 2.5 24ZM4.5 102C4.5 103.105 3.60457 104 2.5 104C1.39543 104 0.5 103.105 0.5 102C0.5 100.895 1.39543 100 2.5 100C3.60457 100 4.5 100.895 4.5 102ZM2.5 164C3.60457 164 4.5 163.105 4.5 162C4.5 160.895 3.60457 160 2.5 160C1.39543 160 0.5 160.895 0.5 162C0.5 163.105 1.39543 164 2.5 164ZM4.5 62C4.5 63.1046 3.60457 64 2.5 64C1.39543 64 0.5 63.1046 0.5 62C0.5 60.8954 1.39543 60 2.5 60C3.60457 60 4.5 60.8954 4.5 62ZM2.5 144C3.60457 144 4.5 143.105 4.5 142C4.5 140.895 3.60457 140 2.5 140C1.39543 140 0.5 140.895 0.5 142C0.5 143.105 1.39543 144 2.5 144ZM84.5 2C84.5 3.10457 83.6046 4 82.5 4C81.3954 4 80.5 3.10457 80.5 2C80.5 0.895431 81.3954 0 82.5 0C83.6046 0 84.5 0.895431 84.5 2ZM82.5 84C83.6046 84 84.5 83.1046 84.5 82C84.5 80.8954 83.6046 80 82.5 80C81.3954 80 80.5 80.8954 80.5 82C80.5 83.1046 81.3954 84 82.5 84ZM84.5 42C84.5 43.1046 83.6046 44 82.5 44C81.3954 44 80.5 43.1046 80.5 42C80.5 40.8954 81.3954 40 82.5 40C83.6046 40 84.5 40.8954 84.5 42ZM82.5 124C83.6046 124 84.5 123.105 84.5 122C84.5 120.895 83.6046 120 82.5 120C81.3954 120 80.5 120.895 80.5 122C80.5 123.105 81.3954 124 82.5 124ZM84.5 182C84.5 183.105 83.6046 184 82.5 184C81.3954 184 80.5 183.105 80.5 182C80.5 180.895 81.3954 180 82.5 180C83.6046 180 84.5 180.895 84.5 182ZM82.5 24C83.6046 24 84.5 23.1046 84.5 22C84.5 20.8954 83.6046 20 82.5 20C81.3954 20 80.5 20.8954 80.5 22C80.5 23.1046 81.3954 24 82.5 24ZM84.5 102C84.5 103.105 83.6046 104 82.5 104C81.3954 104 80.5 103.105 80.5 102C80.5 100.895 81.3954 100 82.5 100C83.6046 100 84.5 100.895 84.5 102ZM82.5 164C83.6046 164 84.5 163.105 84.5 162C84.5 160.895 83.6046 160 82.5 160C81.3954 160 80.5 160.895 80.5 162C80.5 163.105 81.3954 164 82.5 164ZM84.5 62C84.5 63.1046 83.6046 64 82.5 64C81.3954 64 80.5 63.1046 80.5 62C80.5 60.8954 81.3954 60 82.5 60C83.6046 60 84.5 60.8954 84.5 62ZM82.5 144C83.6046 144 84.5 143.105 84.5 142C84.5 140.895 83.6046 140 82.5 140C81.3954 140 80.5 140.895 80.5 142C80.5 143.105 81.3954 144 82.5 144ZM44.5 2C44.5 3.10457 43.6046 4 42.5 4C41.3954 4 40.5 3.10457 40.5 2C40.5 0.895431 41.3954 0 42.5 0C43.6046 0 44.5 0.895431 44.5 2ZM42.5 84C43.6046 84 44.5 83.1046 44.5 82C44.5 80.8954 43.6046 80 42.5 80C41.3954 80 40.5 80.8954 40.5 82C40.5 83.1046 41.3954 84 42.5 84ZM44.5 42C44.5 43.1046 43.6046 44 42.5 44C41.3954 44 40.5 43.1046 40.5 42C40.5 40.8954 41.3954 40 42.5 40C43.6046 40 44.5 40.8954 44.5 42ZM42.5 124C43.6046 124 44.5 123.105 44.5 122C44.5 120.895 43.6046 120 42.5 120C41.3954 120 40.5 120.895 40.5 122C40.5 123.105 41.3954 124 42.5 124ZM44.5 182C44.5 183.105 43.6046 184 42.5 184C41.3954 184 40.5 183.105 40.5 182C40.5 180.895 41.3954 180 42.5 180C43.6046 180 44.5 180.895 44.5 182ZM42.5 24C43.6046 24 44.5 23.1046 44.5 22C44.5 20.8954 43.6046 20 42.5 20C41.3954 20 40.5 20.8954 40.5 22C40.5 23.1046 41.3954 24 42.5 24ZM44.5 102C44.5 103.105 43.6046 104 42.5 104C41.3954 104 40.5 103.105 40.5 102C40.5 100.895 41.3954 100 42.5 100C43.6046 100 44.5 100.895 44.5 102ZM42.5 164C43.6046 164 44.5 163.105 44.5 162C44.5 160.895 43.6046 160 42.5 160C41.3954 160 40.5 160.895 40.5 162C40.5 163.105 41.3954 164 42.5 164ZM44.5 62C44.5 63.1046 43.6046 64 42.5 64C41.3954 64 40.5 63.1046 40.5 62C40.5 60.8954 41.3954 60 42.5 60C43.6046 60 44.5 60.8954 44.5 62ZM42.5 144C43.6046 144 44.5 143.105 44.5 142C44.5 140.895 43.6046 140 42.5 140C41.3954 140 40.5 140.895 40.5 142C40.5 143.105 41.3954 144 42.5 144ZM124.5 2C124.5 3.10457 123.605 4 122.5 4C121.395 4 120.5 3.10457 120.5 2C120.5 0.895431 121.395 0 122.5 0C123.605 0 124.5 0.895431 124.5 2ZM122.5 84C123.605 84 124.5 83.1046 124.5 82C124.5 80.8954 123.605 80 122.5 80C121.395 80 120.5 80.8954 120.5 82C120.5 83.1046 121.395 84 122.5 84ZM124.5 42C124.5 43.1046 123.605 44 122.5 44C121.395 44 120.5 43.1046 120.5 42C120.5 40.8954 121.395 40 122.5 40C123.605 40 124.5 40.8954 124.5 42ZM122.5 124C123.605 124 124.5 123.105 124.5 122C124.5 120.895 123.605 120 122.5 120C121.395 120 120.5 120.895 120.5 122C120.5 123.105 121.395 124 122.5 124ZM124.5 182C124.5 183.105 123.605 184 122.5 184C121.395 184 120.5 183.105 120.5 182C120.5 180.895 121.395 180 122.5 180C123.605 180 124.5 180.895 124.5 182ZM122.5 24C123.605 24 124.5 23.1046 124.5 22C124.5 20.8954 123.605 20 122.5 20C121.395 20 120.5 20.8954 120.5 22C120.5 23.1046 121.395 24 122.5 24ZM124.5 102C124.5 103.105 123.605 104 122.5 104C121.395 104 120.5 103.105 120.5 102C120.5 100.895 121.395 100 122.5 100C123.605 100 124.5 100.895 124.5 102ZM122.5 164C123.605 164 124.5 163.105 124.5 162C124.5 160.895 123.605 160 122.5 160C121.395 160 120.5 160.895 120.5 162C120.5 163.105 121.395 164 122.5 164ZM124.5 62C124.5 63.1046 123.605 64 122.5 64C121.395 64 120.5 63.1046 120.5 62C120.5 60.8954 121.395 60 122.5 60C123.605 60 124.5 60.8954 124.5 62ZM122.5 144C123.605 144 124.5 143.105 124.5 142C124.5 140.895 123.605 140 122.5 140C121.395 140 120.5 140.895 120.5 142C120.5 143.105 121.395 144 122.5 144ZM164.5 2C164.5 3.10457 163.605 4 162.5 4C161.395 4 160.5 3.10457 160.5 2C160.5 0.895431 161.395 0 162.5 0C163.605 0 164.5 0.895431 164.5 2ZM162.5 84C163.605 84 164.5 83.1046 164.5 82C164.5 80.8954 163.605 80 162.5 80C161.395 80 160.5 80.8954 160.5 82C160.5 83.1046 161.395 84 162.5 84ZM164.5 42C164.5 43.1046 163.605 44 162.5 44C161.395 44 160.5 43.1046 160.5 42C160.5 40.8954 161.395 40 162.5 40C163.605 40 164.5 40.8954 164.5 42ZM162.5 124C163.605 124 164.5 123.105 164.5 122C164.5 120.895 163.605 120 162.5 120C161.395 120 160.5 120.895 160.5 122C160.5 123.105 161.395 124 162.5 124ZM164.5 182C164.5 183.105 163.605 184 162.5 184C161.395 184 160.5 183.105 160.5 182C160.5 180.895 161.395 180 162.5 180C163.605 180 164.5 180.895 164.5 182ZM162.5 24C163.605 24 164.5 23.1046 164.5 22C164.5 20.8954 163.605 20 162.5 20C161.395 20 160.5 20.8954 160.5 22C160.5 23.1046 161.395 24 162.5 24ZM164.5 102C164.5 103.105 163.605 104 162.5 104C161.395 104 160.5 103.105 160.5 102C160.5 100.895 161.395 100 162.5 100C163.605 100 164.5 100.895 164.5 102ZM162.5 164C163.605 164 164.5 163.105 164.5 162C164.5 160.895 163.605 160 162.5 160C161.395 160 160.5 160.895 160.5 162C160.5 163.105 161.395 164 162.5 164ZM164.5 62C164.5 63.1046 163.605 64 162.5 64C161.395 64 160.5 63.1046 160.5 62C160.5 60.8954 161.395 60 162.5 60C163.605 60 164.5 60.8954 164.5 62ZM162.5 144C163.605 144 164.5 143.105 164.5 142C164.5 140.895 163.605 140 162.5 140C161.395 140 160.5 140.895 160.5 142C160.5 143.105 161.395 144 162.5 144ZM24.5 2C24.5 3.10457 23.6046 4 22.5 4C21.3954 4 20.5 3.10457 20.5 2C20.5 0.895431 21.3954 0 22.5 0C23.6046 0 24.5 0.895431 24.5 2ZM22.5 84C23.6046 84 24.5 83.1046 24.5 82C24.5 80.8954 23.6046 80 22.5 80C21.3954 80 20.5 80.8954 20.5 82C20.5 83.1046 21.3954 84 22.5 84ZM24.5 42C24.5 43.1046 23.6046 44 22.5 44C21.3954 44 20.5 43.1046 20.5 42C20.5 40.8954 21.3954 40 22.5 40C23.6046 40 24.5 40.8954 24.5 42ZM22.5 124C23.6046 124 24.5 123.105 24.5 122C24.5 120.895 23.6046 120 22.5 120C21.3954 120 20.5 120.895 20.5 122C20.5 123.105 21.3954 124 22.5 124ZM24.5 182C24.5 183.105 23.6046 184 22.5 184C21.3954 184 20.5 183.105 20.5 182C20.5 180.895 21.3954 180 22.5 180C23.6046 180 24.5 180.895 24.5 182ZM22.5 24C23.6046 24 24.5 23.1046 24.5 22C24.5 20.8954 23.6046 20 22.5 20C21.3954 20 20.5 20.8954 20.5 22C20.5 23.1046 21.3954 24 22.5 24ZM24.5 102C24.5 103.105 23.6046 104 22.5 104C21.3954 104 20.5 103.105 20.5 102C20.5 100.895 21.3954 100 22.5 100C23.6046 100 24.5 100.895 24.5 102ZM22.5 164C23.6046 164 24.5 163.105 24.5 162C24.5 160.895 23.6046 160 22.5 160C21.3954 160 20.5 160.895 20.5 162C20.5 163.105 21.3954 164 22.5 164ZM24.5 62C24.5 63.1046 23.6046 64 22.5 64C21.3954 64 20.5 63.1046 20.5 62C20.5 60.8954 21.3954 60 22.5 60C23.6046 60 24.5 60.8954 24.5 62ZM22.5 144C23.6046 144 24.5 143.105 24.5 142C24.5 140.895 23.6046 140 22.5 140C21.3954 140 20.5 140.895 20.5 142C20.5 143.105 21.3954 144 22.5 144ZM104.5 2C104.5 3.10457 103.605 4 102.5 4C101.395 4 100.5 3.10457 100.5 2C100.5 0.895431 101.395 0 102.5 0C103.605 0 104.5 0.895431 104.5 2ZM102.5 84C103.605 84 104.5 83.1046 104.5 82C104.5 80.8954 103.605 80 102.5 80C101.395 80 100.5 80.8954 100.5 82C100.5 83.1046 101.395 84 102.5 84ZM104.5 42C104.5 43.1046 103.605 44 102.5 44C101.395 44 100.5 43.1046 100.5 42C100.5 40.8954 101.395 40 102.5 40C103.605 40 104.5 40.8954 104.5 42ZM102.5 124C103.605 124 104.5 123.105 104.5 122C104.5 120.895 103.605 120 102.5 120C101.395 120 100.5 120.895 100.5 122C100.5 123.105 101.395 124 102.5 124ZM104.5 182C104.5 183.105 103.605 184 102.5 184C101.395 184 100.5 183.105 100.5 182C100.5 180.895 101.395 180 102.5 180C103.605 180 104.5 180.895 104.5 182ZM102.5 24C103.605 24 104.5 23.1046 104.5 22C104.5 20.8954 103.605 20 102.5 20C101.395 20 100.5 20.8954 100.5 22C100.5 23.1046 101.395 24 102.5 24ZM104.5 102C104.5 103.105 103.605 104 102.5 104C101.395 104 100.5 103.105 100.5 102C100.5 100.895 101.395 100 102.5 100C103.605 100 104.5 100.895 104.5 102ZM102.5 164C103.605 164 104.5 163.105 104.5 162C104.5 160.895 103.605 160 102.5 160C101.395 160 100.5 160.895 100.5 162C100.5 163.105 101.395 164 102.5 164ZM104.5 62C104.5 63.1046 103.605 64 102.5 64C101.395 64 100.5 63.1046 100.5 62C100.5 60.8954 101.395 60 102.5 60C103.605 60 104.5 60.8954 104.5 62ZM102.5 144C103.605 144 104.5 143.105 104.5 142C104.5 140.895 103.605 140 102.5 140C101.395 140 100.5 140.895 100.5 142C100.5 143.105 101.395 144 102.5 144ZM64.5 2C64.5 3.10457 63.6046 4 62.5 4C61.3954 4 60.5 3.10457 60.5 2C60.5 0.895431 61.3954 0 62.5 0C63.6046 0 64.5 0.895431 64.5 2ZM62.5 84C63.6046 84 64.5 83.1046 64.5 82C64.5 80.8954 63.6046 80 62.5 80C61.3954 80 60.5 80.8954 60.5 82C60.5 83.1046 61.3954 84 62.5 84ZM64.5 42C64.5 43.1046 63.6046 44 62.5 44C61.3954 44 60.5 43.1046 60.5 42C60.5 40.8954 61.3954 40 62.5 40C63.6046 40 64.5 40.8954 64.5 42ZM62.5 124C63.6046 124 64.5 123.105 64.5 122C64.5 120.895 63.6046 120 62.5 120C61.3954 120 60.5 120.895 60.5 122C60.5 123.105 61.3954 124 62.5 124ZM64.5 182C64.5 183.105 63.6046 184 62.5 184C61.3954 184 60.5 183.105 60.5 182C60.5 180.895 61.3954 180 62.5 180C63.6046 180 64.5 180.895 64.5 182ZM62.5 24C63.6046 24 64.5 23.1046 64.5 22C64.5 20.8954 63.6046 20 62.5 20C61.3954 20 60.5 20.8954 60.5 22C60.5 23.1046 61.3954 24 62.5 24ZM64.5 102C64.5 103.105 63.6046 104 62.5 104C61.3954 104 60.5 103.105 60.5 102C60.5 100.895 61.3954 100 62.5 100C63.6046 100 64.5 100.895 64.5 102ZM62.5 164C63.6046 164 64.5 163.105 64.5 162C64.5 160.895 63.6046 160 62.5 160C61.3954 160 60.5 160.895 60.5 162C60.5 163.105 61.3954 164 62.5 164ZM64.5 62C64.5 63.1046 63.6046 64 62.5 64C61.3954 64 60.5 63.1046 60.5 62C60.5 60.8954 61.3954 60 62.5 60C63.6046 60 64.5 60.8954 64.5 62ZM62.5 144C63.6046 144 64.5 143.105 64.5 142C64.5 140.895 63.6046 140 62.5 140C61.3954 140 60.5 140.895 60.5 142C60.5 143.105 61.3954 144 62.5 144ZM144.5 2C144.5 3.10457 143.605 4 142.5 4C141.395 4 140.5 3.10457 140.5 2C140.5 0.895431 141.395 0 142.5 0C143.605 0 144.5 0.895431 144.5 2ZM142.5 84C143.605 84 144.5 83.1046 144.5 82C144.5 80.8954 143.605 80 142.5 80C141.395 80 140.5 80.8954 140.5 82C140.5 83.1046 141.395 84 142.5 84ZM144.5 42C144.5 43.1046 143.605 44 142.5 44C141.395 44 140.5 43.1046 140.5 42C140.5 40.8954 141.395 40 142.5 40C143.605 40 144.5 40.8954 144.5 42ZM142.5 124C143.605 124 144.5 123.105 144.5 122C144.5 120.895 143.605 120 142.5 120C141.395 120 140.5 120.895 140.5 122C140.5 123.105 141.395 124 142.5 124ZM144.5 182C144.5 183.105 143.605 184 142.5 184C141.395 184 140.5 183.105 140.5 182C140.5 180.895 141.395 180 142.5 180C143.605 180 144.5 180.895 144.5 182ZM142.5 24C143.605 24 144.5 23.1046 144.5 22C144.5 20.8954 143.605 20 142.5 20C141.395 20 140.5 20.8954 140.5 22C140.5 23.1046 141.395 24 142.5 24ZM144.5 102C144.5 103.105 143.605 104 142.5 104C141.395 104 140.5 103.105 140.5 102C140.5 100.895 141.395 100 142.5 100C143.605 100 144.5 100.895 144.5 102ZM142.5 164C143.605 164 144.5 163.105 144.5 162C144.5 160.895 143.605 160 142.5 160C141.395 160 140.5 160.895 140.5 162C140.5 163.105 141.395 164 142.5 164ZM144.5 62C144.5 63.1046 143.605 64 142.5 64C141.395 64 140.5 63.1046 140.5 62C140.5 60.8954 141.395 60 142.5 60C143.605 60 144.5 60.8954 144.5 62ZM142.5 144C143.605 144 144.5 143.105 144.5 142C144.5 140.895 143.605 140 142.5 140C141.395 140 140.5 140.895 140.5 142C140.5 143.105 141.395 144 142.5 144ZM184.5 2C184.5 3.10457 183.605 4 182.5 4C181.395 4 180.5 3.10457 180.5 2C180.5 0.895431 181.395 0 182.5 0C183.605 0 184.5 0.895431 184.5 2ZM182.5 84C183.605 84 184.5 83.1046 184.5 82C184.5 80.8954 183.605 80 182.5 80C181.395 80 180.5 80.8954 180.5 82C180.5 83.1046 181.395 84 182.5 84ZM184.5 42C184.5 43.1046 183.605 44 182.5 44C181.395 44 180.5 43.1046 180.5 42C180.5 40.8954 181.395 40 182.5 40C183.605 40 184.5 40.8954 184.5 42ZM182.5 124C183.605 124 184.5 123.105 184.5 122C184.5 120.895 183.605 120 182.5 120C181.395 120 180.5 120.895 180.5 122C180.5 123.105 181.395 124 182.5 124ZM184.5 182C184.5 183.105 183.605 184 182.5 184C181.395 184 180.5 183.105 180.5 182C180.5 180.895 181.395 180 182.5 180C183.605 180 184.5 180.895 184.5 182ZM182.5 24C183.605 24 184.5 23.1046 184.5 22C184.5 20.8954 183.605 20 182.5 20C181.395 20 180.5 20.8954 180.5 22C180.5 23.1046 181.395 24 182.5 24ZM184.5 102C184.5 103.105 183.605 104 182.5 104C181.395 104 180.5 103.105 180.5 102C180.5 100.895 181.395 100 182.5 100C183.605 100 184.5 100.895 184.5 102ZM182.5 164C183.605 164 184.5 163.105 184.5 162C184.5 160.895 183.605 160 182.5 160C181.395 160 180.5 160.895 180.5 162C180.5 163.105 181.395 164 182.5 164ZM184.5 62C184.5 63.1046 183.605 64 182.5 64C181.395 64 180.5 63.1046 180.5 62C180.5 60.8954 181.395 60 182.5 60C183.605 60 184.5 60.8954 184.5 62ZM182.5 144C183.605 144 184.5 143.105 184.5 142C184.5 140.895 183.605 140 182.5 140C181.395 140 180.5 140.895 180.5 142C180.5 143.105 181.395 144 182.5 144ZM262.5 4C263.605 4 264.5 3.10457 264.5 2C264.5 0.895431 263.605 0 262.5 0C261.395 0 260.5 0.895431 260.5 2C260.5 3.10457 261.395 4 262.5 4ZM264.5 82C264.5 83.1046 263.605 84 262.5 84C261.395 84 260.5 83.1046 260.5 82C260.5 80.8954 261.395 80 262.5 80C263.605 80 264.5 80.8954 264.5 82ZM262.5 44C263.605 44 264.5 43.1046 264.5 42C264.5 40.8954 263.605 40 262.5 40C261.395 40 260.5 40.8954 260.5 42C260.5 43.1046 261.395 44 262.5 44ZM264.5 122C264.5 123.105 263.605 124 262.5 124C261.395 124 260.5 123.105 260.5 122C260.5 120.895 261.395 120 262.5 120C263.605 120 264.5 120.895 264.5 122ZM262.5 184C263.605 184 264.5 183.105 264.5 182C264.5 180.895 263.605 180 262.5 180C261.395 180 260.5 180.895 260.5 182C260.5 183.105 261.395 184 262.5 184ZM264.5 22C264.5 23.1046 263.605 24 262.5 24C261.395 24 260.5 23.1046 260.5 22C260.5 20.8954 261.395 20 262.5 20C263.605 20 264.5 20.8954 264.5 22ZM262.5 104C263.605 104 264.5 103.105 264.5 102C264.5 100.895 263.605 100 262.5 100C261.395 100 260.5 100.895 260.5 102C260.5 103.105 261.395 104 262.5 104ZM264.5 162C264.5 163.105 263.605 164 262.5 164C261.395 164 260.5 163.105 260.5 162C260.5 160.895 261.395 160 262.5 160C263.605 160 264.5 160.895 264.5 162ZM262.5 64C263.605 64 264.5 63.1046 264.5 62C264.5 60.8954 263.605 60 262.5 60C261.395 60 260.5 60.8954 260.5 62C260.5 63.1046 261.395 64 262.5 64ZM264.5 142C264.5 143.105 263.605 144 262.5 144C261.395 144 260.5 143.105 260.5 142C260.5 140.895 261.395 140 262.5 140C263.605 140 264.5 140.895 264.5 142ZM222.5 4C223.605 4 224.5 3.10457 224.5 2C224.5 0.895431 223.605 0 222.5 0C221.395 0 220.5 0.895431 220.5 2C220.5 3.10457 221.395 4 222.5 4ZM224.5 82C224.5 83.1046 223.605 84 222.5 84C221.395 84 220.5 83.1046 220.5 82C220.5 80.8954 221.395 80 222.5 80C223.605 80 224.5 80.8954 224.5 82ZM222.5 44C223.605 44 224.5 43.1046 224.5 42C224.5 40.8954 223.605 40 222.5 40C221.395 40 220.5 40.8954 220.5 42C220.5 43.1046 221.395 44 222.5 44ZM224.5 122C224.5 123.105 223.605 124 222.5 124C221.395 124 220.5 123.105 220.5 122C220.5 120.895 221.395 120 222.5 120C223.605 120 224.5 120.895 224.5 122ZM222.5 184C223.605 184 224.5 183.105 224.5 182C224.5 180.895 223.605 180 222.5 180C221.395 180 220.5 180.895 220.5 182C220.5 183.105 221.395 184 222.5 184ZM224.5 22C224.5 23.1046 223.605 24 222.5 24C221.395 24 220.5 23.1046 220.5 22C220.5 20.8954 221.395 20 222.5 20C223.605 20 224.5 20.8954 224.5 22ZM222.5 104C223.605 104 224.5 103.105 224.5 102C224.5 100.895 223.605 100 222.5 100C221.395 100 220.5 100.895 220.5 102C220.5 103.105 221.395 104 222.5 104ZM224.5 162C224.5 163.105 223.605 164 222.5 164C221.395 164 220.5 163.105 220.5 162C220.5 160.895 221.395 160 222.5 160C223.605 160 224.5 160.895 224.5 162ZM222.5 64C223.605 64 224.5 63.1046 224.5 62C224.5 60.8954 223.605 60 222.5 60C221.395 60 220.5 60.8954 220.5 62C220.5 63.1046 221.395 64 222.5 64ZM224.5 142C224.5 143.105 223.605 144 222.5 144C221.395 144 220.5 143.105 220.5 142C220.5 140.895 221.395 140 222.5 140C223.605 140 224.5 140.895 224.5 142ZM302.5 4C303.605 4 304.5 3.10457 304.5 2C304.5 0.895431 303.605 0 302.5 0C301.395 0 300.5 0.895431 300.5 2C300.5 3.10457 301.395 4 302.5 4ZM304.5 82C304.5 83.1046 303.605 84 302.5 84C301.395 84 300.5 83.1046 300.5 82C300.5 80.8954 301.395 80 302.5 80C303.605 80 304.5 80.8954 304.5 82ZM302.5 44C303.605 44 304.5 43.1046 304.5 42C304.5 40.8954 303.605 40 302.5 40C301.395 40 300.5 40.8954 300.5 42C300.5 43.1046 301.395 44 302.5 44ZM304.5 122C304.5 123.105 303.605 124 302.5 124C301.395 124 300.5 123.105 300.5 122C300.5 120.895 301.395 120 302.5 120C303.605 120 304.5 120.895 304.5 122ZM302.5 184C303.605 184 304.5 183.105 304.5 182C304.5 180.895 303.605 180 302.5 180C301.395 180 300.5 180.895 300.5 182C300.5 183.105 301.395 184 302.5 184ZM304.5 22C304.5 23.1046 303.605 24 302.5 24C301.395 24 300.5 23.1046 300.5 22C300.5 20.8954 301.395 20 302.5 20C303.605 20 304.5 20.8954 304.5 22ZM302.5 104C303.605 104 304.5 103.105 304.5 102C304.5 100.895 303.605 100 302.5 100C301.395 100 300.5 100.895 300.5 102C300.5 103.105 301.395 104 302.5 104ZM304.5 162C304.5 163.105 303.605 164 302.5 164C301.395 164 300.5 163.105 300.5 162C300.5 160.895 301.395 160 302.5 160C303.605 160 304.5 160.895 304.5 162ZM302.5 64C303.605 64 304.5 63.1046 304.5 62C304.5 60.8954 303.605 60 302.5 60C301.395 60 300.5 60.8954 300.5 62C300.5 63.1046 301.395 64 302.5 64ZM304.5 142C304.5 143.105 303.605 144 302.5 144C301.395 144 300.5 143.105 300.5 142C300.5 140.895 301.395 140 302.5 140C303.605 140 304.5 140.895 304.5 142ZM342.5 4C343.605 4 344.5 3.10457 344.5 2C344.5 0.895431 343.605 0 342.5 0C341.395 0 340.5 0.895431 340.5 2C340.5 3.10457 341.395 4 342.5 4ZM344.5 82C344.5 83.1046 343.605 84 342.5 84C341.395 84 340.5 83.1046 340.5 82C340.5 80.8954 341.395 80 342.5 80C343.605 80 344.5 80.8954 344.5 82ZM342.5 44C343.605 44 344.5 43.1046 344.5 42C344.5 40.8954 343.605 40 342.5 40C341.395 40 340.5 40.8954 340.5 42C340.5 43.1046 341.395 44 342.5 44ZM344.5 122C344.5 123.105 343.605 124 342.5 124C341.395 124 340.5 123.105 340.5 122C340.5 120.895 341.395 120 342.5 120C343.605 120 344.5 120.895 344.5 122ZM342.5 184C343.605 184 344.5 183.105 344.5 182C344.5 180.895 343.605 180 342.5 180C341.395 180 340.5 180.895 340.5 182C340.5 183.105 341.395 184 342.5 184ZM344.5 22C344.5 23.1046 343.605 24 342.5 24C341.395 24 340.5 23.1046 340.5 22C340.5 20.8954 341.395 20 342.5 20C343.605 20 344.5 20.8954 344.5 22ZM342.5 104C343.605 104 344.5 103.105 344.5 102C344.5 100.895 343.605 100 342.5 100C341.395 100 340.5 100.895 340.5 102C340.5 103.105 341.395 104 342.5 104ZM344.5 162C344.5 163.105 343.605 164 342.5 164C341.395 164 340.5 163.105 340.5 162C340.5 160.895 341.395 160 342.5 160C343.605 160 344.5 160.895 344.5 162ZM342.5 64C343.605 64 344.5 63.1046 344.5 62C344.5 60.8954 343.605 60 342.5 60C341.395 60 340.5 60.8954 340.5 62C340.5 63.1046 341.395 64 342.5 64ZM344.5 142C344.5 143.105 343.605 144 342.5 144C341.395 144 340.5 143.105 340.5 142C340.5 140.895 341.395 140 342.5 140C343.605 140 344.5 140.895 344.5 142ZM202.5 4C203.605 4 204.5 3.10457 204.5 2C204.5 0.895431 203.605 0 202.5 0C201.395 0 200.5 0.895431 200.5 2C200.5 3.10457 201.395 4 202.5 4ZM204.5 82C204.5 83.1046 203.605 84 202.5 84C201.395 84 200.5 83.1046 200.5 82C200.5 80.8954 201.395 80 202.5 80C203.605 80 204.5 80.8954 204.5 82ZM202.5 44C203.605 44 204.5 43.1046 204.5 42C204.5 40.8954 203.605 40 202.5 40C201.395 40 200.5 40.8954 200.5 42C200.5 43.1046 201.395 44 202.5 44ZM204.5 122C204.5 123.105 203.605 124 202.5 124C201.395 124 200.5 123.105 200.5 122C200.5 120.895 201.395 120 202.5 120C203.605 120 204.5 120.895 204.5 122ZM202.5 184C203.605 184 204.5 183.105 204.5 182C204.5 180.895 203.605 180 202.5 180C201.395 180 200.5 180.895 200.5 182C200.5 183.105 201.395 184 202.5 184ZM204.5 22C204.5 23.1046 203.605 24 202.5 24C201.395 24 200.5 23.1046 200.5 22C200.5 20.8954 201.395 20 202.5 20C203.605 20 204.5 20.8954 204.5 22ZM202.5 104C203.605 104 204.5 103.105 204.5 102C204.5 100.895 203.605 100 202.5 100C201.395 100 200.5 100.895 200.5 102C200.5 103.105 201.395 104 202.5 104ZM204.5 162C204.5 163.105 203.605 164 202.5 164C201.395 164 200.5 163.105 200.5 162C200.5 160.895 201.395 160 202.5 160C203.605 160 204.5 160.895 204.5 162ZM202.5 64C203.605 64 204.5 63.1046 204.5 62C204.5 60.8954 203.605 60 202.5 60C201.395 60 200.5 60.8954 200.5 62C200.5 63.1046 201.395 64 202.5 64ZM204.5 142C204.5 143.105 203.605 144 202.5 144C201.395 144 200.5 143.105 200.5 142C200.5 140.895 201.395 140 202.5 140C203.605 140 204.5 140.895 204.5 142ZM282.5 4C283.605 4 284.5 3.10457 284.5 2C284.5 0.895431 283.605 0 282.5 0C281.395 0 280.5 0.895431 280.5 2C280.5 3.10457 281.395 4 282.5 4ZM284.5 82C284.5 83.1046 283.605 84 282.5 84C281.395 84 280.5 83.1046 280.5 82C280.5 80.8954 281.395 80 282.5 80C283.605 80 284.5 80.8954 284.5 82ZM282.5 44C283.605 44 284.5 43.1046 284.5 42C284.5 40.8954 283.605 40 282.5 40C281.395 40 280.5 40.8954 280.5 42C280.5 43.1046 281.395 44 282.5 44ZM284.5 122C284.5 123.105 283.605 124 282.5 124C281.395 124 280.5 123.105 280.5 122C280.5 120.895 281.395 120 282.5 120C283.605 120 284.5 120.895 284.5 122ZM282.5 184C283.605 184 284.5 183.105 284.5 182C284.5 180.895 283.605 180 282.5 180C281.395 180 280.5 180.895 280.5 182C280.5 183.105 281.395 184 282.5 184ZM284.5 22C284.5 23.1046 283.605 24 282.5 24C281.395 24 280.5 23.1046 280.5 22C280.5 20.8954 281.395 20 282.5 20C283.605 20 284.5 20.8954 284.5 22ZM282.5 104C283.605 104 284.5 103.105 284.5 102C284.5 100.895 283.605 100 282.5 100C281.395 100 280.5 100.895 280.5 102C280.5 103.105 281.395 104 282.5 104ZM284.5 162C284.5 163.105 283.605 164 282.5 164C281.395 164 280.5 163.105 280.5 162C280.5 160.895 281.395 160 282.5 160C283.605 160 284.5 160.895 284.5 162ZM282.5 64C283.605 64 284.5 63.1046 284.5 62C284.5 60.8954 283.605 60 282.5 60C281.395 60 280.5 60.8954 280.5 62C280.5 63.1046 281.395 64 282.5 64ZM284.5 142C284.5 143.105 283.605 144 282.5 144C281.395 144 280.5 143.105 280.5 142C280.5 140.895 281.395 140 282.5 140C283.605 140 284.5 140.895 284.5 142ZM242.5 4C243.605 4 244.5 3.10457 244.5 2C244.5 0.895431 243.605 0 242.5 0C241.395 0 240.5 0.895431 240.5 2C240.5 3.10457 241.395 4 242.5 4ZM244.5 82C244.5 83.1046 243.605 84 242.5 84C241.395 84 240.5 83.1046 240.5 82C240.5 80.8954 241.395 80 242.5 80C243.605 80 244.5 80.8954 244.5 82ZM242.5 44C243.605 44 244.5 43.1046 244.5 42C244.5 40.8954 243.605 40 242.5 40C241.395 40 240.5 40.8954 240.5 42C240.5 43.1046 241.395 44 242.5 44ZM244.5 122C244.5 123.105 243.605 124 242.5 124C241.395 124 240.5 123.105 240.5 122C240.5 120.895 241.395 120 242.5 120C243.605 120 244.5 120.895 244.5 122ZM242.5 184C243.605 184 244.5 183.105 244.5 182C244.5 180.895 243.605 180 242.5 180C241.395 180 240.5 180.895 240.5 182C240.5 183.105 241.395 184 242.5 184ZM244.5 22C244.5 23.1046 243.605 24 242.5 24C241.395 24 240.5 23.1046 240.5 22C240.5 20.8954 241.395 20 242.5 20C243.605 20 244.5 20.8954 244.5 22ZM242.5 104C243.605 104 244.5 103.105 244.5 102C244.5 100.895 243.605 100 242.5 100C241.395 100 240.5 100.895 240.5 102C240.5 103.105 241.395 104 242.5 104ZM244.5 162C244.5 163.105 243.605 164 242.5 164C241.395 164 240.5 163.105 240.5 162C240.5 160.895 241.395 160 242.5 160C243.605 160 244.5 160.895 244.5 162ZM242.5 64C243.605 64 244.5 63.1046 244.5 62C244.5 60.8954 243.605 60 242.5 60C241.395 60 240.5 60.8954 240.5 62C240.5 63.1046 241.395 64 242.5 64ZM244.5 142C244.5 143.105 243.605 144 242.5 144C241.395 144 240.5 143.105 240.5 142C240.5 140.895 241.395 140 242.5 140C243.605 140 244.5 140.895 244.5 142ZM322.5 4C323.605 4 324.5 3.10457 324.5 2C324.5 0.895431 323.605 0 322.5 0C321.395 0 320.5 0.895431 320.5 2C320.5 3.10457 321.395 4 322.5 4ZM324.5 82C324.5 83.1046 323.605 84 322.5 84C321.395 84 320.5 83.1046 320.5 82C320.5 80.8954 321.395 80 322.5 80C323.605 80 324.5 80.8954 324.5 82ZM322.5 44C323.605 44 324.5 43.1046 324.5 42C324.5 40.8954 323.605 40 322.5 40C321.395 40 320.5 40.8954 320.5 42C320.5 43.1046 321.395 44 322.5 44ZM324.5 122C324.5 123.105 323.605 124 322.5 124C321.395 124 320.5 123.105 320.5 122C320.5 120.895 321.395 120 322.5 120C323.605 120 324.5 120.895 324.5 122ZM322.5 184C323.605 184 324.5 183.105 324.5 182C324.5 180.895 323.605 180 322.5 180C321.395 180 320.5 180.895 320.5 182C320.5 183.105 321.395 184 322.5 184ZM324.5 22C324.5 23.1046 323.605 24 322.5 24C321.395 24 320.5 23.1046 320.5 22C320.5 20.8954 321.395 20 322.5 20C323.605 20 324.5 20.8954 324.5 22ZM322.5 104C323.605 104 324.5 103.105 324.5 102C324.5 100.895 323.605 100 322.5 100C321.395 100 320.5 100.895 320.5 102C320.5 103.105 321.395 104 322.5 104ZM324.5 162C324.5 163.105 323.605 164 322.5 164C321.395 164 320.5 163.105 320.5 162C320.5 160.895 321.395 160 322.5 160C323.605 160 324.5 160.895 324.5 162ZM322.5 64C323.605 64 324.5 63.1046 324.5 62C324.5 60.8954 323.605 60 322.5 60C321.395 60 320.5 60.8954 320.5 62C320.5 63.1046 321.395 64 322.5 64ZM324.5 142C324.5 143.105 323.605 144 322.5 144C321.395 144 320.5 143.105 320.5 142C320.5 140.895 321.395 140 322.5 140C323.605 140 324.5 140.895 324.5 142ZM362.5 4C363.605 4 364.5 3.10457 364.5 2C364.5 0.895431 363.605 0 362.5 0C361.395 0 360.5 0.895431 360.5 2C360.5 3.10457 361.395 4 362.5 4ZM364.5 82C364.5 83.1046 363.605 84 362.5 84C361.395 84 360.5 83.1046 360.5 82C360.5 80.8954 361.395 80 362.5 80C363.605 80 364.5 80.8954 364.5 82ZM362.5 44C363.605 44 364.5 43.1046 364.5 42C364.5 40.8954 363.605 40 362.5 40C361.395 40 360.5 40.8954 360.5 42C360.5 43.1046 361.395 44 362.5 44ZM364.5 122C364.5 123.105 363.605 124 362.5 124C361.395 124 360.5 123.105 360.5 122C360.5 120.895 361.395 120 362.5 120C363.605 120 364.5 120.895 364.5 122ZM362.5 184C363.605 184 364.5 183.105 364.5 182C364.5 180.895 363.605 180 362.5 180C361.395 180 360.5 180.895 360.5 182C360.5 183.105 361.395 184 362.5 184ZM364.5 22C364.5 23.1046 363.605 24 362.5 24C361.395 24 360.5 23.1046 360.5 22C360.5 20.8954 361.395 20 362.5 20C363.605 20 364.5 20.8954 364.5 22ZM362.5 104C363.605 104 364.5 103.105 364.5 102C364.5 100.895 363.605 100 362.5 100C361.395 100 360.5 100.895 360.5 102C360.5 103.105 361.395 104 362.5 104ZM364.5 162C364.5 163.105 363.605 164 362.5 164C361.395 164 360.5 163.105 360.5 162C360.5 160.895 361.395 160 362.5 160C363.605 160 364.5 160.895 364.5 162ZM362.5 64C363.605 64 364.5 63.1046 364.5 62C364.5 60.8954 363.605 60 362.5 60C361.395 60 360.5 60.8954 360.5 62C360.5 63.1046 361.395 64 362.5 64ZM364.5 142C364.5 143.105 363.605 144 362.5 144C361.395 144 360.5 143.105 360.5 142C360.5 140.895 361.395 140 362.5 140C363.605 140 364.5 140.895 364.5 142ZM184.5 202.892C184.5 203.997 183.605 204.892 182.5 204.892C181.395 204.892 180.5 203.997 180.5 202.892C180.5 201.788 181.395 200.892 182.5 200.892C183.605 200.892 184.5 201.788 184.5 202.892ZM184.5 282.892C184.5 283.997 183.605 284.892 182.5 284.892C181.395 284.892 180.5 283.997 180.5 282.892C180.5 281.788 181.395 280.892 182.5 280.892C183.605 280.892 184.5 281.788 184.5 282.892ZM182.5 244.892C183.605 244.892 184.5 243.997 184.5 242.892C184.5 241.788 183.605 240.892 182.5 240.892C181.395 240.892 180.5 241.788 180.5 242.892C180.5 243.997 181.395 244.892 182.5 244.892ZM184.5 322.892C184.5 323.997 183.605 324.892 182.5 324.892C181.395 324.892 180.5 323.997 180.5 322.892C180.5 321.788 181.395 320.892 182.5 320.892C183.605 320.892 184.5 321.788 184.5 322.892ZM182.5 384.892C183.605 384.892 184.5 383.997 184.5 382.892C184.5 381.788 183.605 380.892 182.5 380.892C181.395 380.892 180.5 381.788 180.5 382.892C180.5 383.997 181.395 384.892 182.5 384.892ZM184.5 222.892C184.5 223.997 183.605 224.892 182.5 224.892C181.395 224.892 180.5 223.997 180.5 222.892C180.5 221.788 181.395 220.892 182.5 220.892C183.605 220.892 184.5 221.788 184.5 222.892ZM182.5 304.892C183.605 304.892 184.5 303.997 184.5 302.892C184.5 301.788 183.605 300.892 182.5 300.892C181.395 300.892 180.5 301.788 180.5 302.892C180.5 303.997 181.395 304.892 182.5 304.892ZM184.5 362.892C184.5 363.997 183.605 364.892 182.5 364.892C181.395 364.892 180.5 363.997 180.5 362.892C180.5 361.788 181.395 360.892 182.5 360.892C183.605 360.892 184.5 361.788 184.5 362.892ZM182.5 264.892C183.605 264.892 184.5 263.997 184.5 262.892C184.5 261.788 183.605 260.892 182.5 260.892C181.395 260.892 180.5 261.788 180.5 262.892C180.5 263.997 181.395 264.892 182.5 264.892ZM184.5 342.892C184.5 343.997 183.605 344.892 182.5 344.892C181.395 344.892 180.5 343.997 180.5 342.892C180.5 341.788 181.395 340.892 182.5 340.892C183.605 340.892 184.5 341.788 184.5 342.892ZM262.5 204.892C263.605 204.892 264.5 203.997 264.5 202.892C264.5 201.788 263.605 200.892 262.5 200.892C261.395 200.892 260.5 201.788 260.5 202.892C260.5 203.997 261.395 204.892 262.5 204.892ZM264.5 282.892C264.5 283.997 263.605 284.892 262.5 284.892C261.395 284.892 260.5 283.997 260.5 282.892C260.5 281.788 261.395 280.892 262.5 280.892C263.605 280.892 264.5 281.788 264.5 282.892ZM262.5 244.892C263.605 244.892 264.5 243.997 264.5 242.892C264.5 241.788 263.605 240.892 262.5 240.892C261.395 240.892 260.5 241.788 260.5 242.892C260.5 243.997 261.395 244.892 262.5 244.892ZM264.5 322.892C264.5 323.997 263.605 324.892 262.5 324.892C261.395 324.892 260.5 323.997 260.5 322.892C260.5 321.788 261.395 320.892 262.5 320.892C263.605 320.892 264.5 321.788 264.5 322.892ZM262.5 384.892C263.605 384.892 264.5 383.997 264.5 382.892C264.5 381.788 263.605 380.892 262.5 380.892C261.395 380.892 260.5 381.788 260.5 382.892C260.5 383.997 261.395 384.892 262.5 384.892ZM264.5 222.892C264.5 223.997 263.605 224.892 262.5 224.892C261.395 224.892 260.5 223.997 260.5 222.892C260.5 221.788 261.395 220.892 262.5 220.892C263.605 220.892 264.5 221.788 264.5 222.892ZM262.5 304.892C263.605 304.892 264.5 303.997 264.5 302.892C264.5 301.788 263.605 300.892 262.5 300.892C261.395 300.892 260.5 301.788 260.5 302.892C260.5 303.997 261.395 304.892 262.5 304.892ZM264.5 362.892C264.5 363.997 263.605 364.892 262.5 364.892C261.395 364.892 260.5 363.997 260.5 362.892C260.5 361.788 261.395 360.892 262.5 360.892C263.605 360.892 264.5 361.788 264.5 362.892ZM262.5 264.892C263.605 264.892 264.5 263.997 264.5 262.892C264.5 261.788 263.605 260.892 262.5 260.892C261.395 260.892 260.5 261.788 260.5 262.892C260.5 263.997 261.395 264.892 262.5 264.892ZM264.5 342.892C264.5 343.997 263.605 344.892 262.5 344.892C261.395 344.892 260.5 343.997 260.5 342.892C260.5 341.788 261.395 340.892 262.5 340.892C263.605 340.892 264.5 341.788 264.5 342.892ZM222.5 204.892C223.605 204.892 224.5 203.997 224.5 202.892C224.5 201.788 223.605 200.892 222.5 200.892C221.395 200.892 220.5 201.788 220.5 202.892C220.5 203.997 221.395 204.892 222.5 204.892ZM224.5 282.892C224.5 283.997 223.605 284.892 222.5 284.892C221.395 284.892 220.5 283.997 220.5 282.892C220.5 281.788 221.395 280.892 222.5 280.892C223.605 280.892 224.5 281.788 224.5 282.892ZM222.5 244.892C223.605 244.892 224.5 243.997 224.5 242.892C224.5 241.788 223.605 240.892 222.5 240.892C221.395 240.892 220.5 241.788 220.5 242.892C220.5 243.997 221.395 244.892 222.5 244.892ZM224.5 322.892C224.5 323.997 223.605 324.892 222.5 324.892C221.395 324.892 220.5 323.997 220.5 322.892C220.5 321.788 221.395 320.892 222.5 320.892C223.605 320.892 224.5 321.788 224.5 322.892ZM222.5 384.892C223.605 384.892 224.5 383.997 224.5 382.892C224.5 381.788 223.605 380.892 222.5 380.892C221.395 380.892 220.5 381.788 220.5 382.892C220.5 383.997 221.395 384.892 222.5 384.892ZM224.5 222.892C224.5 223.997 223.605 224.892 222.5 224.892C221.395 224.892 220.5 223.997 220.5 222.892C220.5 221.788 221.395 220.892 222.5 220.892C223.605 220.892 224.5 221.788 224.5 222.892ZM222.5 304.892C223.605 304.892 224.5 303.997 224.5 302.892C224.5 301.788 223.605 300.892 222.5 300.892C221.395 300.892 220.5 301.788 220.5 302.892C220.5 303.997 221.395 304.892 222.5 304.892ZM224.5 362.892C224.5 363.997 223.605 364.892 222.5 364.892C221.395 364.892 220.5 363.997 220.5 362.892C220.5 361.788 221.395 360.892 222.5 360.892C223.605 360.892 224.5 361.788 224.5 362.892ZM222.5 264.892C223.605 264.892 224.5 263.997 224.5 262.892C224.5 261.788 223.605 260.892 222.5 260.892C221.395 260.892 220.5 261.788 220.5 262.892C220.5 263.997 221.395 264.892 222.5 264.892ZM224.5 342.892C224.5 343.997 223.605 344.892 222.5 344.892C221.395 344.892 220.5 343.997 220.5 342.892C220.5 341.788 221.395 340.892 222.5 340.892C223.605 340.892 224.5 341.788 224.5 342.892ZM302.5 204.892C303.605 204.892 304.5 203.997 304.5 202.892C304.5 201.788 303.605 200.892 302.5 200.892C301.395 200.892 300.5 201.788 300.5 202.892C300.5 203.997 301.395 204.892 302.5 204.892ZM304.5 282.892C304.5 283.997 303.605 284.892 302.5 284.892C301.395 284.892 300.5 283.997 300.5 282.892C300.5 281.788 301.395 280.892 302.5 280.892C303.605 280.892 304.5 281.788 304.5 282.892ZM302.5 244.892C303.605 244.892 304.5 243.997 304.5 242.892C304.5 241.788 303.605 240.892 302.5 240.892C301.395 240.892 300.5 241.788 300.5 242.892C300.5 243.997 301.395 244.892 302.5 244.892ZM304.5 322.892C304.5 323.997 303.605 324.892 302.5 324.892C301.395 324.892 300.5 323.997 300.5 322.892C300.5 321.788 301.395 320.892 302.5 320.892C303.605 320.892 304.5 321.788 304.5 322.892ZM302.5 384.892C303.605 384.892 304.5 383.997 304.5 382.892C304.5 381.788 303.605 380.892 302.5 380.892C301.395 380.892 300.5 381.788 300.5 382.892C300.5 383.997 301.395 384.892 302.5 384.892ZM304.5 222.892C304.5 223.997 303.605 224.892 302.5 224.892C301.395 224.892 300.5 223.997 300.5 222.892C300.5 221.788 301.395 220.892 302.5 220.892C303.605 220.892 304.5 221.788 304.5 222.892ZM302.5 304.892C303.605 304.892 304.5 303.997 304.5 302.892C304.5 301.788 303.605 300.892 302.5 300.892C301.395 300.892 300.5 301.788 300.5 302.892C300.5 303.997 301.395 304.892 302.5 304.892ZM304.5 362.892C304.5 363.997 303.605 364.892 302.5 364.892C301.395 364.892 300.5 363.997 300.5 362.892C300.5 361.788 301.395 360.892 302.5 360.892C303.605 360.892 304.5 361.788 304.5 362.892ZM302.5 264.892C303.605 264.892 304.5 263.997 304.5 262.892C304.5 261.788 303.605 260.892 302.5 260.892C301.395 260.892 300.5 261.788 300.5 262.892C300.5 263.997 301.395 264.892 302.5 264.892ZM304.5 342.892C304.5 343.997 303.605 344.892 302.5 344.892C301.395 344.892 300.5 343.997 300.5 342.892C300.5 341.788 301.395 340.892 302.5 340.892C303.605 340.892 304.5 341.788 304.5 342.892ZM342.5 204.892C343.605 204.892 344.5 203.997 344.5 202.892C344.5 201.788 343.605 200.892 342.5 200.892C341.395 200.892 340.5 201.788 340.5 202.892C340.5 203.997 341.395 204.892 342.5 204.892ZM344.5 282.892C344.5 283.997 343.605 284.892 342.5 284.892C341.395 284.892 340.5 283.997 340.5 282.892C340.5 281.788 341.395 280.892 342.5 280.892C343.605 280.892 344.5 281.788 344.5 282.892ZM342.5 244.892C343.605 244.892 344.5 243.997 344.5 242.892C344.5 241.788 343.605 240.892 342.5 240.892C341.395 240.892 340.5 241.788 340.5 242.892C340.5 243.997 341.395 244.892 342.5 244.892ZM344.5 322.892C344.5 323.997 343.605 324.892 342.5 324.892C341.395 324.892 340.5 323.997 340.5 322.892C340.5 321.788 341.395 320.892 342.5 320.892C343.605 320.892 344.5 321.788 344.5 322.892ZM342.5 384.892C343.605 384.892 344.5 383.997 344.5 382.892C344.5 381.788 343.605 380.892 342.5 380.892C341.395 380.892 340.5 381.788 340.5 382.892C340.5 383.997 341.395 384.892 342.5 384.892ZM344.5 222.892C344.5 223.997 343.605 224.892 342.5 224.892C341.395 224.892 340.5 223.997 340.5 222.892C340.5 221.788 341.395 220.892 342.5 220.892C343.605 220.892 344.5 221.788 344.5 222.892ZM342.5 304.892C343.605 304.892 344.5 303.997 344.5 302.892C344.5 301.788 343.605 300.892 342.5 300.892C341.395 300.892 340.5 301.788 340.5 302.892C340.5 303.997 341.395 304.892 342.5 304.892ZM344.5 362.892C344.5 363.997 343.605 364.892 342.5 364.892C341.395 364.892 340.5 363.997 340.5 362.892C340.5 361.788 341.395 360.892 342.5 360.892C343.605 360.892 344.5 361.788 344.5 362.892ZM342.5 264.892C343.605 264.892 344.5 263.997 344.5 262.892C344.5 261.788 343.605 260.892 342.5 260.892C341.395 260.892 340.5 261.788 340.5 262.892C340.5 263.997 341.395 264.892 342.5 264.892ZM344.5 342.892C344.5 343.997 343.605 344.892 342.5 344.892C341.395 344.892 340.5 343.997 340.5 342.892C340.5 341.788 341.395 340.892 342.5 340.892C343.605 340.892 344.5 341.788 344.5 342.892ZM202.5 204.892C203.605 204.892 204.5 203.997 204.5 202.892C204.5 201.788 203.605 200.892 202.5 200.892C201.395 200.892 200.5 201.788 200.5 202.892C200.5 203.997 201.395 204.892 202.5 204.892ZM204.5 282.892C204.5 283.997 203.605 284.892 202.5 284.892C201.395 284.892 200.5 283.997 200.5 282.892C200.5 281.788 201.395 280.892 202.5 280.892C203.605 280.892 204.5 281.788 204.5 282.892ZM202.5 244.892C203.605 244.892 204.5 243.997 204.5 242.892C204.5 241.788 203.605 240.892 202.5 240.892C201.395 240.892 200.5 241.788 200.5 242.892C200.5 243.997 201.395 244.892 202.5 244.892ZM204.5 322.892C204.5 323.997 203.605 324.892 202.5 324.892C201.395 324.892 200.5 323.997 200.5 322.892C200.5 321.788 201.395 320.892 202.5 320.892C203.605 320.892 204.5 321.788 204.5 322.892ZM202.5 384.892C203.605 384.892 204.5 383.997 204.5 382.892C204.5 381.788 203.605 380.892 202.5 380.892C201.395 380.892 200.5 381.788 200.5 382.892C200.5 383.997 201.395 384.892 202.5 384.892ZM204.5 222.892C204.5 223.997 203.605 224.892 202.5 224.892C201.395 224.892 200.5 223.997 200.5 222.892C200.5 221.788 201.395 220.892 202.5 220.892C203.605 220.892 204.5 221.788 204.5 222.892ZM202.5 304.892C203.605 304.892 204.5 303.997 204.5 302.892C204.5 301.788 203.605 300.892 202.5 300.892C201.395 300.892 200.5 301.788 200.5 302.892C200.5 303.997 201.395 304.892 202.5 304.892ZM204.5 362.892C204.5 363.997 203.605 364.892 202.5 364.892C201.395 364.892 200.5 363.997 200.5 362.892C200.5 361.788 201.395 360.892 202.5 360.892C203.605 360.892 204.5 361.788 204.5 362.892ZM202.5 264.892C203.605 264.892 204.5 263.997 204.5 262.892C204.5 261.788 203.605 260.892 202.5 260.892C201.395 260.892 200.5 261.788 200.5 262.892C200.5 263.997 201.395 264.892 202.5 264.892ZM204.5 342.892C204.5 343.997 203.605 344.892 202.5 344.892C201.395 344.892 200.5 343.997 200.5 342.892C200.5 341.788 201.395 340.892 202.5 340.892C203.605 340.892 204.5 341.788 204.5 342.892ZM282.5 204.892C283.605 204.892 284.5 203.997 284.5 202.892C284.5 201.788 283.605 200.892 282.5 200.892C281.395 200.892 280.5 201.788 280.5 202.892C280.5 203.997 281.395 204.892 282.5 204.892ZM284.5 282.892C284.5 283.997 283.605 284.892 282.5 284.892C281.395 284.892 280.5 283.997 280.5 282.892C280.5 281.788 281.395 280.892 282.5 280.892C283.605 280.892 284.5 281.788 284.5 282.892ZM282.5 244.892C283.605 244.892 284.5 243.997 284.5 242.892C284.5 241.788 283.605 240.892 282.5 240.892C281.395 240.892 280.5 241.788 280.5 242.892C280.5 243.997 281.395 244.892 282.5 244.892ZM284.5 322.892C284.5 323.997 283.605 324.892 282.5 324.892C281.395 324.892 280.5 323.997 280.5 322.892C280.5 321.788 281.395 320.892 282.5 320.892C283.605 320.892 284.5 321.788 284.5 322.892ZM282.5 384.892C283.605 384.892 284.5 383.997 284.5 382.892C284.5 381.788 283.605 380.892 282.5 380.892C281.395 380.892 280.5 381.788 280.5 382.892C280.5 383.997 281.395 384.892 282.5 384.892ZM284.5 222.892C284.5 223.997 283.605 224.892 282.5 224.892C281.395 224.892 280.5 223.997 280.5 222.892C280.5 221.788 281.395 220.892 282.5 220.892C283.605 220.892 284.5 221.788 284.5 222.892ZM282.5 304.892C283.605 304.892 284.5 303.997 284.5 302.892C284.5 301.788 283.605 300.892 282.5 300.892C281.395 300.892 280.5 301.788 280.5 302.892C280.5 303.997 281.395 304.892 282.5 304.892ZM284.5 362.892C284.5 363.997 283.605 364.892 282.5 364.892C281.395 364.892 280.5 363.997 280.5 362.892C280.5 361.788 281.395 360.892 282.5 360.892C283.605 360.892 284.5 361.788 284.5 362.892ZM282.5 264.892C283.605 264.892 284.5 263.997 284.5 262.892C284.5 261.788 283.605 260.892 282.5 260.892C281.395 260.892 280.5 261.788 280.5 262.892C280.5 263.997 281.395 264.892 282.5 264.892ZM284.5 342.892C284.5 343.997 283.605 344.892 282.5 344.892C281.395 344.892 280.5 343.997 280.5 342.892C280.5 341.788 281.395 340.892 282.5 340.892C283.605 340.892 284.5 341.788 284.5 342.892ZM242.5 204.892C243.605 204.892 244.5 203.997 244.5 202.892C244.5 201.788 243.605 200.892 242.5 200.892C241.395 200.892 240.5 201.788 240.5 202.892C240.5 203.997 241.395 204.892 242.5 204.892ZM244.5 282.892C244.5 283.997 243.605 284.892 242.5 284.892C241.395 284.892 240.5 283.997 240.5 282.892C240.5 281.788 241.395 280.892 242.5 280.892C243.605 280.892 244.5 281.788 244.5 282.892ZM242.5 244.892C243.605 244.892 244.5 243.997 244.5 242.892C244.5 241.788 243.605 240.892 242.5 240.892C241.395 240.892 240.5 241.788 240.5 242.892C240.5 243.997 241.395 244.892 242.5 244.892ZM244.5 322.892C244.5 323.997 243.605 324.892 242.5 324.892C241.395 324.892 240.5 323.997 240.5 322.892C240.5 321.788 241.395 320.892 242.5 320.892C243.605 320.892 244.5 321.788 244.5 322.892ZM242.5 384.892C243.605 384.892 244.5 383.997 244.5 382.892C244.5 381.788 243.605 380.892 242.5 380.892C241.395 380.892 240.5 381.788 240.5 382.892C240.5 383.997 241.395 384.892 242.5 384.892ZM244.5 222.892C244.5 223.997 243.605 224.892 242.5 224.892C241.395 224.892 240.5 223.997 240.5 222.892C240.5 221.788 241.395 220.892 242.5 220.892C243.605 220.892 244.5 221.788 244.5 222.892ZM242.5 304.892C243.605 304.892 244.5 303.997 244.5 302.892C244.5 301.788 243.605 300.892 242.5 300.892C241.395 300.892 240.5 301.788 240.5 302.892C240.5 303.997 241.395 304.892 242.5 304.892ZM244.5 362.892C244.5 363.997 243.605 364.892 242.5 364.892C241.395 364.892 240.5 363.997 240.5 362.892C240.5 361.788 241.395 360.892 242.5 360.892C243.605 360.892 244.5 361.788 244.5 362.892ZM242.5 264.892C243.605 264.892 244.5 263.997 244.5 262.892C244.5 261.788 243.605 260.892 242.5 260.892C241.395 260.892 240.5 261.788 240.5 262.892C240.5 263.997 241.395 264.892 242.5 264.892ZM244.5 342.892C244.5 343.997 243.605 344.892 242.5 344.892C241.395 344.892 240.5 343.997 240.5 342.892C240.5 341.788 241.395 340.892 242.5 340.892C243.605 340.892 244.5 341.788 244.5 342.892ZM322.5 204.892C323.605 204.892 324.5 203.997 324.5 202.892C324.5 201.788 323.605 200.892 322.5 200.892C321.395 200.892 320.5 201.788 320.5 202.892C320.5 203.997 321.395 204.892 322.5 204.892ZM324.5 282.892C324.5 283.997 323.605 284.892 322.5 284.892C321.395 284.892 320.5 283.997 320.5 282.892C320.5 281.788 321.395 280.892 322.5 280.892C323.605 280.892 324.5 281.788 324.5 282.892ZM322.5 244.892C323.605 244.892 324.5 243.997 324.5 242.892C324.5 241.788 323.605 240.892 322.5 240.892C321.395 240.892 320.5 241.788 320.5 242.892C320.5 243.997 321.395 244.892 322.5 244.892ZM324.5 322.892C324.5 323.997 323.605 324.892 322.5 324.892C321.395 324.892 320.5 323.997 320.5 322.892C320.5 321.788 321.395 320.892 322.5 320.892C323.605 320.892 324.5 321.788 324.5 322.892ZM322.5 384.892C323.605 384.892 324.5 383.997 324.5 382.892C324.5 381.788 323.605 380.892 322.5 380.892C321.395 380.892 320.5 381.788 320.5 382.892C320.5 383.997 321.395 384.892 322.5 384.892ZM324.5 222.892C324.5 223.997 323.605 224.892 322.5 224.892C321.395 224.892 320.5 223.997 320.5 222.892C320.5 221.788 321.395 220.892 322.5 220.892C323.605 220.892 324.5 221.788 324.5 222.892ZM322.5 304.892C323.605 304.892 324.5 303.997 324.5 302.892C324.5 301.788 323.605 300.892 322.5 300.892C321.395 300.892 320.5 301.788 320.5 302.892C320.5 303.997 321.395 304.892 322.5 304.892ZM324.5 362.892C324.5 363.997 323.605 364.892 322.5 364.892C321.395 364.892 320.5 363.997 320.5 362.892C320.5 361.788 321.395 360.892 322.5 360.892C323.605 360.892 324.5 361.788 324.5 362.892ZM322.5 264.892C323.605 264.892 324.5 263.997 324.5 262.892C324.5 261.788 323.605 260.892 322.5 260.892C321.395 260.892 320.5 261.788 320.5 262.892C320.5 263.997 321.395 264.892 322.5 264.892ZM324.5 342.892C324.5 343.997 323.605 344.892 322.5 344.892C321.395 344.892 320.5 343.997 320.5 342.892C320.5 341.788 321.395 340.892 322.5 340.892C323.605 340.892 324.5 341.788 324.5 342.892ZM362.5 204.892C363.605 204.892 364.5 203.997 364.5 202.892C364.5 201.788 363.605 200.892 362.5 200.892C361.395 200.892 360.5 201.788 360.5 202.892C360.5 203.997 361.395 204.892 362.5 204.892ZM364.5 282.892C364.5 283.997 363.605 284.892 362.5 284.892C361.395 284.892 360.5 283.997 360.5 282.892C360.5 281.788 361.395 280.892 362.5 280.892C363.605 280.892 364.5 281.788 364.5 282.892ZM362.5 244.892C363.605 244.892 364.5 243.997 364.5 242.892C364.5 241.788 363.605 240.892 362.5 240.892C361.395 240.892 360.5 241.788 360.5 242.892C360.5 243.997 361.395 244.892 362.5 244.892ZM364.5 322.892C364.5 323.997 363.605 324.892 362.5 324.892C361.395 324.892 360.5 323.997 360.5 322.892C360.5 321.788 361.395 320.892 362.5 320.892C363.605 320.892 364.5 321.788 364.5 322.892ZM362.5 384.892C363.605 384.892 364.5 383.997 364.5 382.892C364.5 381.788 363.605 380.892 362.5 380.892C361.395 380.892 360.5 381.788 360.5 382.892C360.5 383.997 361.395 384.892 362.5 384.892ZM364.5 222.892C364.5 223.997 363.605 224.892 362.5 224.892C361.395 224.892 360.5 223.997 360.5 222.892C360.5 221.788 361.395 220.892 362.5 220.892C363.605 220.892 364.5 221.788 364.5 222.892ZM362.5 304.892C363.605 304.892 364.5 303.997 364.5 302.892C364.5 301.788 363.605 300.892 362.5 300.892C361.395 300.892 360.5 301.788 360.5 302.892C360.5 303.997 361.395 304.892 362.5 304.892ZM364.5 362.892C364.5 363.997 363.605 364.892 362.5 364.892C361.395 364.892 360.5 363.997 360.5 362.892C360.5 361.788 361.395 360.892 362.5 360.892C363.605 360.892 364.5 361.788 364.5 362.892ZM362.5 264.892C363.605 264.892 364.5 263.997 364.5 262.892C364.5 261.788 363.605 260.892 362.5 260.892C361.395 260.892 360.5 261.788 360.5 262.892C360.5 263.997 361.395 264.892 362.5 264.892ZM364.5 342.892C364.5 343.997 363.605 344.892 362.5 344.892C361.395 344.892 360.5 343.997 360.5 342.892C360.5 341.788 361.395 340.892 362.5 340.892C363.605 340.892 364.5 341.788 364.5 342.892ZM4.5 202.892C4.5 203.997 3.60457 204.892 2.5 204.892C1.39543 204.892 0.5 203.997 0.5 202.892C0.5 201.788 1.39543 200.892 2.5 200.892C3.60457 200.892 4.5 201.788 4.5 202.892ZM4.5 282.892C4.5 283.997 3.60457 284.892 2.5 284.892C1.39543 284.892 0.5 283.997 0.5 282.892C0.5 281.788 1.39543 280.892 2.5 280.892C3.60457 280.892 4.5 281.788 4.5 282.892ZM2.5 244.892C3.60457 244.892 4.5 243.997 4.5 242.892C4.5 241.788 3.60457 240.892 2.5 240.892C1.39543 240.892 0.5 241.788 0.5 242.892C0.5 243.997 1.39543 244.892 2.5 244.892ZM4.5 322.892C4.5 323.997 3.60457 324.892 2.5 324.892C1.39543 324.892 0.5 323.997 0.5 322.892C0.5 321.788 1.39543 320.892 2.5 320.892C3.60457 320.892 4.5 321.788 4.5 322.892ZM2.5 384.892C3.60457 384.892 4.5 383.997 4.5 382.892C4.5 381.788 3.60457 380.892 2.5 380.892C1.39543 380.892 0.5 381.788 0.5 382.892C0.5 383.997 1.39543 384.892 2.5 384.892ZM4.5 222.892C4.5 223.997 3.60457 224.892 2.5 224.892C1.39543 224.892 0.5 223.997 0.5 222.892C0.5 221.788 1.39543 220.892 2.5 220.892C3.60457 220.892 4.5 221.788 4.5 222.892ZM2.5 304.892C3.60457 304.892 4.5 303.997 4.5 302.892C4.5 301.788 3.60457 300.892 2.5 300.892C1.39543 300.892 0.5 301.788 0.5 302.892C0.5 303.997 1.39543 304.892 2.5 304.892ZM4.5 362.892C4.5 363.997 3.60457 364.892 2.5 364.892C1.39543 364.892 0.5 363.997 0.5 362.892C0.5 361.788 1.39543 360.892 2.5 360.892C3.60457 360.892 4.5 361.788 4.5 362.892ZM2.5 264.892C3.60457 264.892 4.5 263.997 4.5 262.892C4.5 261.788 3.60457 260.892 2.5 260.892C1.39543 260.892 0.5 261.788 0.5 262.892C0.5 263.997 1.39543 264.892 2.5 264.892ZM4.5 342.892C4.5 343.997 3.60457 344.892 2.5 344.892C1.39543 344.892 0.5 343.997 0.5 342.892C0.5 341.788 1.39543 340.892 2.5 340.892C3.60457 340.892 4.5 341.788 4.5 342.892ZM82.5 204.892C83.6046 204.892 84.5 203.997 84.5 202.892C84.5 201.788 83.6046 200.892 82.5 200.892C81.3954 200.892 80.5 201.788 80.5 202.892C80.5 203.997 81.3954 204.892 82.5 204.892ZM84.5 282.892C84.5 283.997 83.6046 284.892 82.5 284.892C81.3954 284.892 80.5 283.997 80.5 282.892C80.5 281.788 81.3954 280.892 82.5 280.892C83.6046 280.892 84.5 281.788 84.5 282.892ZM82.5 244.892C83.6046 244.892 84.5 243.997 84.5 242.892C84.5 241.788 83.6046 240.892 82.5 240.892C81.3954 240.892 80.5 241.788 80.5 242.892C80.5 243.997 81.3954 244.892 82.5 244.892ZM84.5 322.892C84.5 323.997 83.6046 324.892 82.5 324.892C81.3954 324.892 80.5 323.997 80.5 322.892C80.5 321.788 81.3954 320.892 82.5 320.892C83.6046 320.892 84.5 321.788 84.5 322.892ZM82.5 384.892C83.6046 384.892 84.5 383.997 84.5 382.892C84.5 381.788 83.6046 380.892 82.5 380.892C81.3954 380.892 80.5 381.788 80.5 382.892C80.5 383.997 81.3954 384.892 82.5 384.892ZM84.5 222.892C84.5 223.997 83.6046 224.892 82.5 224.892C81.3954 224.892 80.5 223.997 80.5 222.892C80.5 221.788 81.3954 220.892 82.5 220.892C83.6046 220.892 84.5 221.788 84.5 222.892ZM82.5 304.892C83.6046 304.892 84.5 303.997 84.5 302.892C84.5 301.788 83.6046 300.892 82.5 300.892C81.3954 300.892 80.5 301.788 80.5 302.892C80.5 303.997 81.3954 304.892 82.5 304.892ZM84.5 362.892C84.5 363.997 83.6046 364.892 82.5 364.892C81.3954 364.892 80.5 363.997 80.5 362.892C80.5 361.788 81.3954 360.892 82.5 360.892C83.6046 360.892 84.5 361.788 84.5 362.892ZM82.5 264.892C83.6046 264.892 84.5 263.997 84.5 262.892C84.5 261.788 83.6046 260.892 82.5 260.892C81.3954 260.892 80.5 261.788 80.5 262.892C80.5 263.997 81.3954 264.892 82.5 264.892ZM84.5 342.892C84.5 343.997 83.6046 344.892 82.5 344.892C81.3954 344.892 80.5 343.997 80.5 342.892C80.5 341.788 81.3954 340.892 82.5 340.892C83.6046 340.892 84.5 341.788 84.5 342.892ZM42.5 204.892C43.6046 204.892 44.5 203.997 44.5 202.892C44.5 201.788 43.6046 200.892 42.5 200.892C41.3954 200.892 40.5 201.788 40.5 202.892C40.5 203.997 41.3954 204.892 42.5 204.892ZM44.5 282.892C44.5 283.997 43.6046 284.892 42.5 284.892C41.3954 284.892 40.5 283.997 40.5 282.892C40.5 281.788 41.3954 280.892 42.5 280.892C43.6046 280.892 44.5 281.788 44.5 282.892ZM42.5 244.892C43.6046 244.892 44.5 243.997 44.5 242.892C44.5 241.788 43.6046 240.892 42.5 240.892C41.3954 240.892 40.5 241.788 40.5 242.892C40.5 243.997 41.3954 244.892 42.5 244.892ZM44.5 322.892C44.5 323.997 43.6046 324.892 42.5 324.892C41.3954 324.892 40.5 323.997 40.5 322.892C40.5 321.788 41.3954 320.892 42.5 320.892C43.6046 320.892 44.5 321.788 44.5 322.892ZM42.5 384.892C43.6046 384.892 44.5 383.997 44.5 382.892C44.5 381.788 43.6046 380.892 42.5 380.892C41.3954 380.892 40.5 381.788 40.5 382.892C40.5 383.997 41.3954 384.892 42.5 384.892ZM44.5 222.892C44.5 223.997 43.6046 224.892 42.5 224.892C41.3954 224.892 40.5 223.997 40.5 222.892C40.5 221.788 41.3954 220.892 42.5 220.892C43.6046 220.892 44.5 221.788 44.5 222.892ZM42.5 304.892C43.6046 304.892 44.5 303.997 44.5 302.892C44.5 301.788 43.6046 300.892 42.5 300.892C41.3954 300.892 40.5 301.788 40.5 302.892C40.5 303.997 41.3954 304.892 42.5 304.892ZM44.5 362.892C44.5 363.997 43.6046 364.892 42.5 364.892C41.3954 364.892 40.5 363.997 40.5 362.892C40.5 361.788 41.3954 360.892 42.5 360.892C43.6046 360.892 44.5 361.788 44.5 362.892ZM42.5 264.892C43.6046 264.892 44.5 263.997 44.5 262.892C44.5 261.788 43.6046 260.892 42.5 260.892C41.3954 260.892 40.5 261.788 40.5 262.892C40.5 263.997 41.3954 264.892 42.5 264.892ZM44.5 342.892C44.5 343.997 43.6046 344.892 42.5 344.892C41.3954 344.892 40.5 343.997 40.5 342.892C40.5 341.788 41.3954 340.892 42.5 340.892C43.6046 340.892 44.5 341.788 44.5 342.892ZM122.5 204.892C123.605 204.892 124.5 203.997 124.5 202.892C124.5 201.788 123.605 200.892 122.5 200.892C121.395 200.892 120.5 201.788 120.5 202.892C120.5 203.997 121.395 204.892 122.5 204.892ZM124.5 282.892C124.5 283.997 123.605 284.892 122.5 284.892C121.395 284.892 120.5 283.997 120.5 282.892C120.5 281.788 121.395 280.892 122.5 280.892C123.605 280.892 124.5 281.788 124.5 282.892ZM122.5 244.892C123.605 244.892 124.5 243.997 124.5 242.892C124.5 241.788 123.605 240.892 122.5 240.892C121.395 240.892 120.5 241.788 120.5 242.892C120.5 243.997 121.395 244.892 122.5 244.892ZM124.5 322.892C124.5 323.997 123.605 324.892 122.5 324.892C121.395 324.892 120.5 323.997 120.5 322.892C120.5 321.788 121.395 320.892 122.5 320.892C123.605 320.892 124.5 321.788 124.5 322.892ZM122.5 384.892C123.605 384.892 124.5 383.997 124.5 382.892C124.5 381.788 123.605 380.892 122.5 380.892C121.395 380.892 120.5 381.788 120.5 382.892C120.5 383.997 121.395 384.892 122.5 384.892ZM124.5 222.892C124.5 223.997 123.605 224.892 122.5 224.892C121.395 224.892 120.5 223.997 120.5 222.892C120.5 221.788 121.395 220.892 122.5 220.892C123.605 220.892 124.5 221.788 124.5 222.892ZM122.5 304.892C123.605 304.892 124.5 303.997 124.5 302.892C124.5 301.788 123.605 300.892 122.5 300.892C121.395 300.892 120.5 301.788 120.5 302.892C120.5 303.997 121.395 304.892 122.5 304.892ZM124.5 362.892C124.5 363.997 123.605 364.892 122.5 364.892C121.395 364.892 120.5 363.997 120.5 362.892C120.5 361.788 121.395 360.892 122.5 360.892C123.605 360.892 124.5 361.788 124.5 362.892ZM122.5 264.892C123.605 264.892 124.5 263.997 124.5 262.892C124.5 261.788 123.605 260.892 122.5 260.892C121.395 260.892 120.5 261.788 120.5 262.892C120.5 263.997 121.395 264.892 122.5 264.892ZM124.5 342.892C124.5 343.997 123.605 344.892 122.5 344.892C121.395 344.892 120.5 343.997 120.5 342.892C120.5 341.788 121.395 340.892 122.5 340.892C123.605 340.892 124.5 341.788 124.5 342.892ZM162.5 204.892C163.605 204.892 164.5 203.997 164.5 202.892C164.5 201.788 163.605 200.892 162.5 200.892C161.395 200.892 160.5 201.788 160.5 202.892C160.5 203.997 161.395 204.892 162.5 204.892ZM164.5 282.892C164.5 283.997 163.605 284.892 162.5 284.892C161.395 284.892 160.5 283.997 160.5 282.892C160.5 281.788 161.395 280.892 162.5 280.892C163.605 280.892 164.5 281.788 164.5 282.892ZM162.5 244.892C163.605 244.892 164.5 243.997 164.5 242.892C164.5 241.788 163.605 240.892 162.5 240.892C161.395 240.892 160.5 241.788 160.5 242.892C160.5 243.997 161.395 244.892 162.5 244.892ZM164.5 322.892C164.5 323.997 163.605 324.892 162.5 324.892C161.395 324.892 160.5 323.997 160.5 322.892C160.5 321.788 161.395 320.892 162.5 320.892C163.605 320.892 164.5 321.788 164.5 322.892ZM162.5 384.892C163.605 384.892 164.5 383.997 164.5 382.892C164.5 381.788 163.605 380.892 162.5 380.892C161.395 380.892 160.5 381.788 160.5 382.892C160.5 383.997 161.395 384.892 162.5 384.892ZM164.5 222.892C164.5 223.997 163.605 224.892 162.5 224.892C161.395 224.892 160.5 223.997 160.5 222.892C160.5 221.788 161.395 220.892 162.5 220.892C163.605 220.892 164.5 221.788 164.5 222.892ZM162.5 304.892C163.605 304.892 164.5 303.997 164.5 302.892C164.5 301.788 163.605 300.892 162.5 300.892C161.395 300.892 160.5 301.788 160.5 302.892C160.5 303.997 161.395 304.892 162.5 304.892ZM164.5 362.892C164.5 363.997 163.605 364.892 162.5 364.892C161.395 364.892 160.5 363.997 160.5 362.892C160.5 361.788 161.395 360.892 162.5 360.892C163.605 360.892 164.5 361.788 164.5 362.892ZM162.5 264.892C163.605 264.892 164.5 263.997 164.5 262.892C164.5 261.788 163.605 260.892 162.5 260.892C161.395 260.892 160.5 261.788 160.5 262.892C160.5 263.997 161.395 264.892 162.5 264.892ZM164.5 342.892C164.5 343.997 163.605 344.892 162.5 344.892C161.395 344.892 160.5 343.997 160.5 342.892C160.5 341.788 161.395 340.892 162.5 340.892C163.605 340.892 164.5 341.788 164.5 342.892ZM22.5 204.892C23.6046 204.892 24.5 203.997 24.5 202.892C24.5 201.788 23.6046 200.892 22.5 200.892C21.3954 200.892 20.5 201.788 20.5 202.892C20.5 203.997 21.3954 204.892 22.5 204.892ZM24.5 282.892C24.5 283.997 23.6046 284.892 22.5 284.892C21.3954 284.892 20.5 283.997 20.5 282.892C20.5 281.788 21.3954 280.892 22.5 280.892C23.6046 280.892 24.5 281.788 24.5 282.892ZM22.5 244.892C23.6046 244.892 24.5 243.997 24.5 242.892C24.5 241.788 23.6046 240.892 22.5 240.892C21.3954 240.892 20.5 241.788 20.5 242.892C20.5 243.997 21.3954 244.892 22.5 244.892ZM24.5 322.892C24.5 323.997 23.6046 324.892 22.5 324.892C21.3954 324.892 20.5 323.997 20.5 322.892C20.5 321.788 21.3954 320.892 22.5 320.892C23.6046 320.892 24.5 321.788 24.5 322.892ZM22.5 384.892C23.6046 384.892 24.5 383.997 24.5 382.892C24.5 381.788 23.6046 380.892 22.5 380.892C21.3954 380.892 20.5 381.788 20.5 382.892C20.5 383.997 21.3954 384.892 22.5 384.892ZM24.5 222.892C24.5 223.997 23.6046 224.892 22.5 224.892C21.3954 224.892 20.5 223.997 20.5 222.892C20.5 221.788 21.3954 220.892 22.5 220.892C23.6046 220.892 24.5 221.788 24.5 222.892ZM22.5 304.892C23.6046 304.892 24.5 303.997 24.5 302.892C24.5 301.788 23.6046 300.892 22.5 300.892C21.3954 300.892 20.5 301.788 20.5 302.892C20.5 303.997 21.3954 304.892 22.5 304.892ZM24.5 362.892C24.5 363.997 23.6046 364.892 22.5 364.892C21.3954 364.892 20.5 363.997 20.5 362.892C20.5 361.788 21.3954 360.892 22.5 360.892C23.6046 360.892 24.5 361.788 24.5 362.892ZM22.5 264.892C23.6046 264.892 24.5 263.997 24.5 262.892C24.5 261.788 23.6046 260.892 22.5 260.892C21.3954 260.892 20.5 261.788 20.5 262.892C20.5 263.997 21.3954 264.892 22.5 264.892ZM24.5 342.892C24.5 343.997 23.6046 344.892 22.5 344.892C21.3954 344.892 20.5 343.997 20.5 342.892C20.5 341.788 21.3954 340.892 22.5 340.892C23.6046 340.892 24.5 341.788 24.5 342.892ZM102.5 204.892C103.605 204.892 104.5 203.997 104.5 202.892C104.5 201.788 103.605 200.892 102.5 200.892C101.395 200.892 100.5 201.788 100.5 202.892C100.5 203.997 101.395 204.892 102.5 204.892ZM104.5 282.892C104.5 283.997 103.605 284.892 102.5 284.892C101.395 284.892 100.5 283.997 100.5 282.892C100.5 281.788 101.395 280.892 102.5 280.892C103.605 280.892 104.5 281.788 104.5 282.892ZM102.5 244.892C103.605 244.892 104.5 243.997 104.5 242.892C104.5 241.788 103.605 240.892 102.5 240.892C101.395 240.892 100.5 241.788 100.5 242.892C100.5 243.997 101.395 244.892 102.5 244.892ZM104.5 322.892C104.5 323.997 103.605 324.892 102.5 324.892C101.395 324.892 100.5 323.997 100.5 322.892C100.5 321.788 101.395 320.892 102.5 320.892C103.605 320.892 104.5 321.788 104.5 322.892ZM102.5 384.892C103.605 384.892 104.5 383.997 104.5 382.892C104.5 381.788 103.605 380.892 102.5 380.892C101.395 380.892 100.5 381.788 100.5 382.892C100.5 383.997 101.395 384.892 102.5 384.892ZM104.5 222.892C104.5 223.997 103.605 224.892 102.5 224.892C101.395 224.892 100.5 223.997 100.5 222.892C100.5 221.788 101.395 220.892 102.5 220.892C103.605 220.892 104.5 221.788 104.5 222.892ZM102.5 304.892C103.605 304.892 104.5 303.997 104.5 302.892C104.5 301.788 103.605 300.892 102.5 300.892C101.395 300.892 100.5 301.788 100.5 302.892C100.5 303.997 101.395 304.892 102.5 304.892ZM104.5 362.892C104.5 363.997 103.605 364.892 102.5 364.892C101.395 364.892 100.5 363.997 100.5 362.892C100.5 361.788 101.395 360.892 102.5 360.892C103.605 360.892 104.5 361.788 104.5 362.892ZM102.5 264.892C103.605 264.892 104.5 263.997 104.5 262.892C104.5 261.788 103.605 260.892 102.5 260.892C101.395 260.892 100.5 261.788 100.5 262.892C100.5 263.997 101.395 264.892 102.5 264.892ZM104.5 342.892C104.5 343.997 103.605 344.892 102.5 344.892C101.395 344.892 100.5 343.997 100.5 342.892C100.5 341.788 101.395 340.892 102.5 340.892C103.605 340.892 104.5 341.788 104.5 342.892ZM62.5 204.892C63.6046 204.892 64.5 203.997 64.5 202.892C64.5 201.788 63.6046 200.892 62.5 200.892C61.3954 200.892 60.5 201.788 60.5 202.892C60.5 203.997 61.3954 204.892 62.5 204.892ZM64.5 282.892C64.5 283.997 63.6046 284.892 62.5 284.892C61.3954 284.892 60.5 283.997 60.5 282.892C60.5 281.788 61.3954 280.892 62.5 280.892C63.6046 280.892 64.5 281.788 64.5 282.892ZM62.5 244.892C63.6046 244.892 64.5 243.997 64.5 242.892C64.5 241.788 63.6046 240.892 62.5 240.892C61.3954 240.892 60.5 241.788 60.5 242.892C60.5 243.997 61.3954 244.892 62.5 244.892ZM64.5 322.892C64.5 323.997 63.6046 324.892 62.5 324.892C61.3954 324.892 60.5 323.997 60.5 322.892C60.5 321.788 61.3954 320.892 62.5 320.892C63.6046 320.892 64.5 321.788 64.5 322.892ZM62.5 384.892C63.6046 384.892 64.5 383.997 64.5 382.892C64.5 381.788 63.6046 380.892 62.5 380.892C61.3954 380.892 60.5 381.788 60.5 382.892C60.5 383.997 61.3954 384.892 62.5 384.892ZM64.5 222.892C64.5 223.997 63.6046 224.892 62.5 224.892C61.3954 224.892 60.5 223.997 60.5 222.892C60.5 221.788 61.3954 220.892 62.5 220.892C63.6046 220.892 64.5 221.788 64.5 222.892ZM62.5 304.892C63.6046 304.892 64.5 303.997 64.5 302.892C64.5 301.788 63.6046 300.892 62.5 300.892C61.3954 300.892 60.5 301.788 60.5 302.892C60.5 303.997 61.3954 304.892 62.5 304.892ZM64.5 362.892C64.5 363.997 63.6046 364.892 62.5 364.892C61.3954 364.892 60.5 363.997 60.5 362.892C60.5 361.788 61.3954 360.892 62.5 360.892C63.6046 360.892 64.5 361.788 64.5 362.892ZM62.5 264.892C63.6046 264.892 64.5 263.997 64.5 262.892C64.5 261.788 63.6046 260.892 62.5 260.892C61.3954 260.892 60.5 261.788 60.5 262.892C60.5 263.997 61.3954 264.892 62.5 264.892ZM64.5 342.892C64.5 343.997 63.6046 344.892 62.5 344.892C61.3954 344.892 60.5 343.997 60.5 342.892C60.5 341.788 61.3954 340.892 62.5 340.892C63.6046 340.892 64.5 341.788 64.5 342.892ZM142.5 204.892C143.605 204.892 144.5 203.997 144.5 202.892C144.5 201.788 143.605 200.892 142.5 200.892C141.395 200.892 140.5 201.788 140.5 202.892C140.5 203.997 141.395 204.892 142.5 204.892ZM144.5 282.892C144.5 283.997 143.605 284.892 142.5 284.892C141.395 284.892 140.5 283.997 140.5 282.892C140.5 281.788 141.395 280.892 142.5 280.892C143.605 280.892 144.5 281.788 144.5 282.892ZM142.5 244.892C143.605 244.892 144.5 243.997 144.5 242.892C144.5 241.788 143.605 240.892 142.5 240.892C141.395 240.892 140.5 241.788 140.5 242.892C140.5 243.997 141.395 244.892 142.5 244.892ZM144.5 322.892C144.5 323.997 143.605 324.892 142.5 324.892C141.395 324.892 140.5 323.997 140.5 322.892C140.5 321.788 141.395 320.892 142.5 320.892C143.605 320.892 144.5 321.788 144.5 322.892ZM142.5 384.892C143.605 384.892 144.5 383.997 144.5 382.892C144.5 381.788 143.605 380.892 142.5 380.892C141.395 380.892 140.5 381.788 140.5 382.892C140.5 383.997 141.395 384.892 142.5 384.892ZM144.5 222.892C144.5 223.997 143.605 224.892 142.5 224.892C141.395 224.892 140.5 223.997 140.5 222.892C140.5 221.788 141.395 220.892 142.5 220.892C143.605 220.892 144.5 221.788 144.5 222.892ZM142.5 304.892C143.605 304.892 144.5 303.997 144.5 302.892C144.5 301.788 143.605 300.892 142.5 300.892C141.395 300.892 140.5 301.788 140.5 302.892C140.5 303.997 141.395 304.892 142.5 304.892ZM144.5 362.892C144.5 363.997 143.605 364.892 142.5 364.892C141.395 364.892 140.5 363.997 140.5 362.892C140.5 361.788 141.395 360.892 142.5 360.892C143.605 360.892 144.5 361.788 144.5 362.892ZM142.5 264.892C143.605 264.892 144.5 263.997 144.5 262.892C144.5 261.788 143.605 260.892 142.5 260.892C141.395 260.892 140.5 261.788 140.5 262.892C140.5 263.997 141.395 264.892 142.5 264.892ZM144.5 342.892C144.5 343.997 143.605 344.892 142.5 344.892C141.395 344.892 140.5 343.997 140.5 342.892C140.5 341.788 141.395 340.892 142.5 340.892C143.605 340.892 144.5 341.788 144.5 342.892Z" fill="white"/>
</svg>
