<svg width="16" height="16" viewBox="0 0 16 16" fill="none" xmlns="http://www.w3.org/2000/svg">
<g clip-path="url(#clip0_7509_921)">
<path fill-rule="evenodd" clip-rule="evenodd" d="M9.52 1.3335C9.79984 1.33357 10.0726 1.42169 10.2995 1.58537C10.5265 1.74905 10.6962 1.98 10.7847 2.2455L11.1467 3.3335H13.3333C13.5101 3.3335 13.6797 3.40373 13.8047 3.52876C13.9298 3.65378 14 3.82335 14 4.00016C14 4.17697 13.9298 4.34654 13.8047 4.47157C13.6797 4.59659 13.5101 4.66683 13.3333 4.66683H12.6667V12.6668C12.6667 13.1973 12.456 13.706 12.0809 14.081C11.7058 14.4561 11.1971 14.6668 10.6667 14.6668H5.33333C4.8029 14.6668 4.29419 14.4561 3.91912 14.081C3.54405 13.706 3.33333 13.1973 3.33333 12.6668V4.66683H2.66667C2.48986 4.66683 2.32029 4.59659 2.19526 4.47157C2.07024 4.34654 2 4.17697 2 4.00016C2 3.82335 2.07024 3.65378 2.19526 3.52876C2.32029 3.40373 2.48986 3.3335 2.66667 3.3335H4.85333L5.21533 2.2455C5.3038 1.97989 5.47362 1.74886 5.70073 1.58517C5.92784 1.42148 6.20071 1.33343 6.48067 1.3335H9.52ZM11.3333 4.66683H4.66667V12.6668C4.66667 12.8436 4.7369 13.0132 4.86193 13.1382C4.98695 13.2633 5.15652 13.3335 5.33333 13.3335H10.6667C10.8435 13.3335 11.013 13.2633 11.1381 13.1382C11.2631 13.0132 11.3333 12.8436 11.3333 12.6668V4.66683ZM9.52 2.66683H6.48L6.258 3.3335H9.742L9.52 2.66683Z" fill="white"/>
</g>
<defs>
<clipPath id="clip0_7509_921">
<rect width="16" height="16" fill="white"/>
</clipPath>
</defs>
</svg>
